ply
format ascii 1.0
comment Created in Blender version 4.3.2
element vertex 72
property float x
property float y
property float z
property uchar red
property uchar green
property uchar blue
property uchar alpha
element edge 96
property int vertex1
property int vertex2
end_header
-3.973643e-09 -0.201774 -0.979432 79 63 35 18
-0.854729 -0.3264775 -0.403548 10 122 16 184
-0.979432 0 -0.201774 16 112 90 184
-0.20177402 -0.979432 -1.9868216e-09 239 145 61 10
-3.973643e-09 -0.201774 0.979432 129 47 77 245
-0.3264775 -0.403548 0.854729 249 246 147 9
0.979432 0 -0.201774 175 110 155 50
0.979432 0 0.201774 143 30 112 85
0.854729 -0.3264775 -0.403548 216 156 189 2
-0.979432 0 0.201774 13 223 123 248
-0.854729 -0.3264775 0.403548 27 40 149 167
0.20177399 -0.979432 -1.9868216e-09 130 35 72 143
-0.3264775 -0.403548 -0.854729 28 68 93 190
-0.20177402 -0.7300255 -0.652955 25 224 43 249
-0.652955 -0.201774 -0.7300255 180 98 34 92
-0.403548 -0.854729 -0.3264775 23 169 52 130
-0.7300255 -0.652955 -0.201774 169 16 51 37
-0.7300255 -0.652955 0.201774 176 132 118 63
-0.20177402 -0.7300255 0.652955 107 209 99 202
0.652955 -0.201774 -0.7300255 122 60 63 233
0.3264775 -0.403548 -0.854729 81 227 156 217
-0.652955 -0.201774 0.7300255 128 147 161 41
0.7300255 -0.652955 -0.201774 95 217 138 44
0.403548 -0.854729 -0.3264775 157 232 8 3
0.854729 -0.3264775 0.403548 236 159 25 137
0.652955 -0.201774 0.7300255 200 174 3 220
0.3264775 -0.403548 0.854729 118 156 227 174
0.20177399 -0.7300255 -0.652955 3 212 201 233
-0.403548 -0.854729 0.3264775 73 9 207 47
0.20177399 -0.7300255 0.652955 145 176 77 23
0.7300255 -0.652955 0.201774 115 3 121 205
0.403548 -0.854729 0.3264775 178 88 227 214
0.652955 -0.0017739981 0.7300255 164 18 124 79
-3.973643e-09 -0.0017739981 0.979432 232 112 224 75
-0.652955 -0.0017739981 0.7300255 43 87 220 180
-3.973643e-09 -0.0017739981 -0.979432 87 73 228 127
-0.652955 -0.0017739981 -0.7300255 137 159 80 53
0.652955 -0.0017739981 -0.7300255 18 19 168 8
-3.973643e-09 0.201774 -0.979432 79 63 35 18
-0.854729 0.3264775 -0.403548 10 122 16 184
-0.20177402 0.979432 -1.9868216e-09 239 145 61 10
-3.973643e-09 0.201774 0.979432 129 47 77 245
-0.3264775 0.403548 0.854729 249 246 147 9
0.854729 0.3264775 -0.403548 216 156 189 2
-0.854729 0.3264775 0.403548 27 40 149 167
0.20177399 0.979432 -1.9868216e-09 130 35 72 143
-0.3264775 0.403548 -0.854729 28 68 93 190
-0.20177402 0.7300255 -0.652955 25 224 43 249
-0.652955 0.201774 -0.7300255 180 98 34 92
-0.403548 0.854729 -0.3264775 23 169 52 130
-0.7300255 0.652955 -0.201774 169 16 51 37
-0.7300255 0.652955 0.201774 176 132 118 63
-0.20177402 0.7300255 0.652955 107 209 99 202
0.652955 0.201774 -0.7300255 122 60 63 233
0.3264775 0.403548 -0.854729 81 227 156 217
-0.652955 0.201774 0.7300255 128 147 161 41
0.7300255 0.652955 -0.201774 95 217 138 44
0.403548 0.854729 -0.3264775 157 232 8 3
0.854729 0.3264775 0.403548 236 159 25 137
0.652955 0.201774 0.7300255 200 174 3 220
0.3264775 0.403548 0.854729 118 156 227 174
0.20177399 0.7300255 -0.652955 3 212 201 233
-0.403548 0.854729 0.3264775 73 9 207 47
0.20177399 0.7300255 0.652955 145 176 77 23
0.7300255 0.652955 0.201774 115 3 121 205
0.403548 0.854729 0.3264775 178 88 227 214
0.652955 0.0017739981 0.7300255 164 18 124 79
-3.973643e-09 0.0017739981 0.979432 232 112 224 75
-0.652955 0.0017739981 0.7300255 43 87 220 180
-3.973643e-09 0.0017739981 -0.979432 87 73 228 127
-0.652955 0.0017739981 -0.7300255 137 159 80 53
0.652955 0.0017739981 -0.7300255 18 19 168 8
6 7
9 10
19 20
22 23
25 26
30 31
0 12
0 20
2 9
2 1
3 11
3 15
3 28
4 5
4 26
6 8
11 23
11 31
7 24
13 12
13 15
13 27
14 1
14 12
16 15
16 1
16 17
18 5
18 28
18 29
19 8
21 10
21 5
22 8
22 30
25 24
27 20
27 23
17 28
17 10
29 26
29 31
30 24
25 32
4 33
21 34
0 35
14 36
19 37
9 44
53 54
56 57
59 60
64 65
38 46
38 54
2 39
40 45
40 49
40 62
41 42
41 60
6 43
45 57
45 65
7 58
47 46
47 49
47 61
48 39
48 46
50 49
50 39
50 51
52 42
52 62
52 63
53 43
55 44
55 42
56 43
56 64
59 58
61 54
61 57
51 62
51 44
63 60
63 65
64 58
59 66
41 67
55 68
38 69
48 70
53 71
