ply
format ascii 1.0
element vertex 134
property float x
property float y
property float z
property uchar red
property uchar green
property uchar blue
property uchar alpha
element edge 151
property int vertex1
property int vertex2
end_header
0.42044100165367126 0.8877335786819458 -0.24499952793121338 0 0 255 255
0.4449218511581421 1.0120959281921387 -0.09957966208457947 9 9 246 255
0.28803467750549316 1.119185447692871 0.022664669901132584 19 19 236 255
0.3221454918384552 1.035295009613037 0.20220457017421722 28 28 227 255
0.12187035381793976 1.0842361450195312 0.1805160641670227 37 37 218 255
0.00032721832394599915 1.0297085046768188 0.34927260875701904 47 47 208 255
-0.05407489091157913 0.9911648035049438 0.48112592101097107 56 56 199 255
-0.027325790375471115 0.9471486806869507 0.6246050000190735 64 64 191 255
-0.07281212508678436 0.8855404853820801 0.7611595392227173 73 73 182 255
-0.18497195839881897 0.8225364089012146 0.7578448057174683 82 82 173 255
-0.2597934603691101 0.7290633916854858 0.7879438400268555 90 90 165 255
-0.3194311857223511 0.5823385715484619 0.8295539617538452 99 99 156 255
-0.25787869095802307 0.4645693004131317 0.8861804604530334 109 109 146 255
-0.2742346525192261 0.1869370937347412 0.9124268293380737 119 119 136 255
-0.3985530436038971 -0.04440763592720032 0.9035625457763672 128 128 127 255
0.5043505430221558 0.9426831007003784 0.28360462188720703 37 37 218 255
0.7062020301818848 0.894986629486084 0.23428834974765778 46 46 209 255
0.6865388751029968 0.7943153381347656 0.3949601948261261 56 56 199 255
0.8838458061218262 0.7075599431991577 0.27809008955955505 65 65 190 255
0.8528907895088196 0.566094696521759 0.414090633392334 74 74 181 255
0.7608907222747803 0.48136770725250244 0.5904670357704163 83 83 172 255
0.7852862477302551 0.27205514907836914 0.6871750354766846 92 92 163 255
0.8087303638458252 0.06846078485250473 0.7143004536628723 102 102 153 255
0.8088224530220032 -0.09882329404354095 0.5836231112480164 111 111 144 255
0.7308343648910522 -0.2995285391807556 0.5751816034317017 121 121 134 255
0.662904679775238 -0.4884633421897888 0.509785532951355 131 131 124 255
0.5282415151596069 -0.5384434461593628 0.6525973081588745 141 141 114 255
-0.07191883027553558 1.0487267971038818 0.11179004609584808 47 47 208 255
-0.27732276916503906 0.9768856763839722 0.1901286393404007 55 55 200 255
-0.419382244348526 0.9149291515350342 0.319518506526947 65 65 190 255
-0.35684314370155334 0.9241108298301697 0.4656372666358948 74 74 181 255
-0.30296531319618225 0.8582538366317749 0.6145246028900146 83 83 172 255
-0.39278024435043335 0.6963955760002136 0.6859756112098694 93 93 162 255
-0.5043364763259888 0.5638717412948608 0.7107866406440735 101 101 154 255
-0.5680227279663086 0.4509538412094116 0.6316951513290405 110 110 145 255
-0.698829174041748 0.32977962493896484 0.5456950664520264 118 118 137 255
-0.8597666621208191 0.1626339703798294 0.3890620172023773 127 127 128 255
0.7767987251281738 -0.45585495233535767 0.3276917338371277 141 141 114 255
0.6726955771446228 -0.607339084148407 0.3221927285194397 149 149 106 255
0.595764696598053 -0.6975383758544922 0.21214152872562408 157 157 98 255
0.5187034606933594 -0.7615329623222351 0.0830962285399437 166 166 89 255
0.404700368642807 -0.8726133108139038 0.019198261201381683 175 175 80 255
0.24562394618988037 -0.9358032941818237 0.023596256971359253 185 185 70 255
0.11685396730899811 -0.9152261018753052 -0.15788854658603668 194 194 61 255
-0.9501014351844788 0.05437338352203369 0.18215280771255493 136 136 119 255
-0.9353682994842529 -0.05814092606306076 0.06364399194717407 145 145 110 255
-0.870161771774292 -0.23508624732494354 0.039085693657398224 154 154 101 255
-0.8520305156707764 -0.40854164958000183 -0.05135270953178406 162 162 93 255
-0.853609561920166 -0.5118616819381714 -0.015523774549365044 171 171 84 255
-0.7960083484649658 -0.6134186387062073 -0.12545758485794067 180 180 75 255
-0.6983721256256104 -0.7265017032623291 -0.1392151564359665 190 190 65 255
-0.7132961750030518 -0.7200648784637451 0.06406253576278687 199 199 56 255
-0.7694032788276672 -0.6277738809585571 0.1134413480758667 208 208 47 255
-0.6965596675872803 -0.6117459535598755 0.3196958303451538 217 217 38 255
-0.589120626449585 -0.6476517915725708 0.48820599913597107 226 226 29 255
0.6739873886108398 0.686541736125946 0.5456910133361816 66 66 189 255
0.4866366386413574 0.7278218269348145 0.5883467197418213 75 75 180 255
0.4863545894622803 0.8589091300964355 0.4695606827735901 84 84 171 255
-0.8799514770507812 -0.2392507642507553 -0.11790522933006287 163 163 92 255
-0.8604000806808472 -0.19482557475566864 -0.29431191086769104 173 173 82 255
-0.7983403205871582 -0.2070920467376709 -0.4412473142147064 182 182 73 255
-0.6695864200592041 -0.2728992700576782 -0.5706589818000793 191 191 64 255
-0.5267844200134277 -0.22857093811035156 -0.6832025647163391 200 200 55 255
-0.4145486056804657 -0.16641849279403687 -0.745646595954895 207 207 48 255
-0.36604025959968567 -0.02970356121659279 -0.7917010188102722 215 215 40 255
-0.2966424226760864 0.14556695520877838 -0.8122780323028564 225 225 30 255
-0.23030370473861694 0.03286168351769447 -0.8768336772918701 234 234 21 255
0.6249698400497437 0.5324913859367371 0.6881142854690552 75 75 180 255
0.48089632391929626 0.52156662940979 0.7931030988693237 83 83 172 255
0.4148261249065399 0.4283411502838135 0.8994197845458984 91 91 164 255
0.3977319598197937 0.2744748890399933 0.9770756959915161 98 98 157 255
-0.5916765332221985 -0.7695484161376953 0.2990075647830963 208 208 47 255
-0.4045783281326294 -0.8271796703338623 0.5041011571884155 218 218 37 255
-0.49142876267433167 0.07613588869571686 -0.7210243940353394 225 225 30 255
0.31104692816734314 0.1666336953639984 1.0193278789520264 105 105 150 255
0.21718427538871765 0.042360179126262665 1.0404884815216064 113 113 142 255
0.17961131036281586 -0.20455721020698547 0.944137454032898 122 122 133 255
0.23587213456630707 -0.42486634850502014 0.8941682577133179 132 132 123 255
0.09813561290502548 0.8715479373931885 0.7401688098907471 73 73 182 255
0.22449754178524017 0.7075037360191345 0.7942122220993042 82 82 173 255
-0.5570720434188843 -0.7969996929168701 -0.2370898723602295 199 199 56 255
0.5901479721069336 0.364982008934021 0.8096558451652527 93 93 162 255
0.6123958230018616 0.20981678366661072 0.8688333034515381 102 102 153 255
0.4338589310646057 0.056414663791656494 0.9599331617355347 112 112 143 255
0.3605054020881653 -0.17799413204193115 0.9503400325775146 121 121 134 255
0.32516446709632874 -0.8162316083908081 -0.15161091089248657 185 185 70 255
0.4877628982067108 -0.7228294610977173 -0.1924181580543518 195 195 60 255
0.4214152991771698 -0.6620930433273315 -0.3932122588157654 204 204 51 255
0.311784565448761 -0.6040295362472534 -0.5457767248153687 214 214 41 255
-0.1917957365512848 0.3484685719013214 -0.8006410598754883 235 235 20 255
-0.1395176500082016 0.5186014175415039 -0.7546759843826294 244 244 11 255
-0.7454615831375122 0.1482197493314743 0.5817153453826904 137 137 118 255
0.44560617208480835 0.6626856327056885 0.7095624804496765 84 84 171 255
-0.5386077165603638 -0.39610686898231506 -0.636070191860199 201 201 54 255
-0.4157717227935791 -0.36813056468963623 -0.7486956715583801 210 210 45 255
0.3675788342952728 -0.4967975914478302 -0.6911243200302124 223 223 32 255
0.5020046234130859 -0.36440473794937134 -0.8093252182006836 232 232 23 255
0.5330517888069153 -0.1844993382692337 -0.8668473958969116 242 242 13 255
0.5991419553756714 0.01613079570233822 -0.8067092895507812 251 251 4 255
-0.9358891248703003 0.07218609750270844 -0.014108298346400261 146 146 109 255
-0.8964448571205139 -0.057730793952941895 -0.15691915154457092 155 155 100 255
-0.8533865809440613 0.04483138024806976 -0.2999393045902252 165 165 90 255
-0.20926424860954285 0.9936673641204834 0.3789816200733185 65 65 190 255
-0.23148110508918762 -0.9411872625350952 0.06851517409086227 0 0 255 255
-0.3685702681541443 -0.8958274126052856 -0.18012137711048126 10 10 245 255
-0.6786683797836304 -0.6291881799697876 -0.32969188690185547 38 38 217 255
-0.5858244895935059 -0.6117640137672424 -0.47505220770835876 47 47 208 255
-0.5168807506561279 -0.7035691738128662 -0.45299309492111206 57 57 198 255
-0.4213123917579651 -0.805449903011322 -0.45398443937301636 66 66 189 255
-0.25757935643196106 -0.8630093336105347 -0.41516587138175964 75 75 180 255
-0.08710017055273056 -0.7828906774520874 -0.4716397523880005 84 84 171 255
0.12233994901180267 -0.7959133982658386 -0.29657936096191406 94 94 161 255
0.2839277982711792 0.8128914833068848 0.637639045715332 171 171 84 255
-0.5778160095214844 -0.4761849343776703 -0.566135048866272 57 57 198 255
-0.3099427819252014 -0.26204562187194824 -0.8311453461647034 83 83 172 255
-0.24413040280342102 -0.13180962204933167 -0.8692141771316528 91 91 164 255
0.27266359329223633 0.5694434642791748 0.8735107183456421 179 179 76 255
-0.33200913667678833 -0.7731637954711914 -0.6170836091041565 75 75 180 255
-0.16132228076457977 -0.7362931966781616 -0.6800339221954346 84 84 171 255
0.01722779870033264 -0.7220147848129272 -0.6261974573135376 93 93 162 255
0.19542010128498077 -0.7054204940795898 -0.47465425729751587 102 102 153 255
0.05399617552757263 -0.07512542605400085 1.0268195867538452 29 29 226 255
0.04515635222196579 0.1205584853887558 1.0361225605010986 38 38 217 255
0.1645783632993698 0.25651267170906067 1.033306360244751 47 47 208 255
0.18977677822113037 0.42351606488227844 0.9690968990325928 57 57 198 255
0.02984553575515747 0.42614564299583435 0.987438976764679 66 66 189 255
-0.0957360565662384 0.4613569676876068 0.9641269445419312 75 75 180 255
-0.18108099699020386 0.3347996473312378 0.9507622718811035 85 85 170 255
-0.392254501581192 -0.4857381582260132 -0.7094897031784058 0 0 255 255
-0.47038179636001587 -0.604659378528595 -0.5813596844673157 10 10 245 255
-0.3421420454978943 -0.6471560001373291 -0.6783100366592407 19 19 236 255
-0.14879083633422852 -0.6121397018432617 -0.7432183623313904 65 65 190 255
-0.24098661541938782 -0.5093401670455933 -0.8222794532775879 75 75 180 255
-0.2710612416267395 -0.39892375469207764 -0.8655926585197449 83 83 172 255
0 1
1 2
2 3
3 4
3 15
15 16
16 17
4 5
5 6
4 27
27 28
28 29
29 30
30 31
31 32
6 7
6 102
7 8
7 78
8 9
9 10
8 78
10 11
11 12
12 13
10 32
13 14
13 127
127 126
126 125
125 124
17 18
18 19
19 20
17 55
20 21
21 22
22 23
23 24
24 25
20 67
25 26
25 37
37 38
38 39
39 40
40 41
32 33
33 34
34 35
35 36
36 44
36 91
41 42
42 43
43 111
41 85
85 86
86 87
87 88
44 45
45 46
44 99
99 100
100 101
46 47
47 48
48 49
49 50
46 58
58 59
59 60
60 61
50 51
50 80
80 104
104 103
50 105
105 106
51 52
52 53
53 54
51 71
71 72
55 56
55 67
56 57
56 92
56 112
112 78
61 62
62 63
63 64
61 93
64 65
64 73
65 66
66 115
115 114
65 89
89 90
67 68
68 69
68 81
81 82
82 83
68 92
69 70
70 74
69 116
74 75
74 83
75 76
76 77
75 121
121 122
122 123
123 124
78 79
79 92
79 116
83 84
88 95
95 96
96 97
97 98
88 120
93 94
93 113
113 106
94 114
94 128
128 129
106 107
107 108
106 129
108 109
109 110
110 111
108 117
111 120
114 133
133 132
132 131
131 118
116 124
117 118
117 130
130 129
118 119
119 120
