ply
format ascii 1.0
comment Created in Blender version 4.3.2
element vertex 70
property float x
property float y
property float z
property uchar red
property uchar green
property uchar blue
property uchar alpha
element edge 112
property int vertex1
property int vertex2
end_header
5 -0.4 -0.2 0 254 0 0
3.2029934 -1.05 0.2897008 0 254 254 0
3.2029934 -1.05 -0.25764978 0 254 254 0
5 -0.4 0.2 0 254 0 0
5.4 -0.028765041 0 0 254 0 0
0.5 -0.95 -0.35 0 0 254 0
0.5 -0.95 0.45 0 0 254 0
-2.2 -1.1 -0.3 0 0 254 0
2.5 -0.028765041 0.6 0 254 254 0
-2.2 -1.1 0.4 0 0 254 0
-1 -0.028765041 0.55 0 0 254 0
4 -0.7624122 -0.036507122 0 254 254 0
4 -1.1392657 -0.3 0 254 254 0
5.2 -1 -0.1 0 254 0 0
0.2 -3.6 0 254 0 0 0
-2.8 -3 0 254 0 0 0
-2 -1.1 0.1 0 0 254 0
1.2 -0.99336225 0.24412733 0 0 254 0
-0.8 -4 -0.05 254 0 0 0
0.8 -2.3 -0.3 254 0 0 0
-1.8 -2.3 -0.3 254 0 0 0
-3.4 -0.862 0.512 0 254 254 0
-3.4 -0.238 0.512 0 254 254 0
-2.2 -0.29 0.46 0 0 254 0
-2.2 -0.29 -0.06 0 0 254 0
-2.2 -0.81 -0.06 0 0 254 0
-2.2 -0.81 0.46 0 0 254 0
-3.4 -0.238 -0.112 0 254 254 0
-3.4 -0.862 -0.112 0 254 254 0
0.5 0.02123497 -0.35 0 0 254 0
0.5 0.02123497 0.45 0 0 254 0
-2.2 0.021912586 -0.3 0 0 254 0
-2.2 0.021912586 0.4 0 0 254 0
1.7768955 -1.0229867 -0.16968906 0 0 254 0
2.2943223 -1.025 -0.3 0 127 254 0
5 0.4 -0.2 0 254 0 0
3.2029934 1.05 0.2897008 0 254 254 0
3.2029934 1.05 -0.25764978 0 254 254 0
5 0.4 0.2 0 254 0 0
5.4 0.028765041 0 0 254 0 0
0.5 0.95 -0.35 0 0 254 0
0.5 0.95 0.45 0 0 254 0
-2.2 1.1 -0.3 0 0 254 0
2.5 0.028765041 0.6 0 254 254 0
-2.2 1.1 0.4 0 0 254 0
-1 0.028765041 0.55 0 0 254 0
4 0.7624122 -0.036507122 0 254 254 0
4 1.1392657 -0.3 0 254 254 0
5.2 1 -0.1 0 254 0 0
0.2 3.6 0 254 0 0 0
-2.8 3 0 254 0 0 0
-2 1.1 0.1 0 0 254 0
1.2 0.99336225 0.24412733 0 0 254 0
-0.8 4 -0.05 254 0 0 0
0.8 2.3 -0.3 254 0 0 0
-1.8 2.3 -0.3 254 0 0 0
-3.4 0.862 0.512 0 254 254 0
-3.4 0.238 0.512 0 254 254 0
-2.2 0.29 0.46 0 0 254 0
-2.2 0.29 -0.06 0 0 254 0
-2.2 0.81 -0.06 0 0 254 0
-2.2 0.81 0.46 0 0 254 0
-3.4 0.238 -0.112 0 254 254 0
-3.4 0.862 -0.112 0 254 254 0
0.5 -0.02123497 -0.35 0 0 254 0
0.5 -0.02123497 0.45 0 0 254 0
-2.2 -0.021912586 -0.3 0 0 254 0
-2.2 -0.021912586 0.4 0 0 254 0
1.7768955 1.0229867 -0.16968906 0 0 254 0
2.2943223 1.025 -0.3 0 127 254 0
12 13
15 16
19 20
25 26
5 29
7 31
9 32
0 3
3 1
0 2
2 1
4 3
4 0
1 6
34 5
6 9
5 7
5 6
7 9
8 10
8 1
10 9
6 30
11 13
1 13
17 14
14 18
18 15
17 16
17 18
16 14
16 18
14 19
16 20
15 20
26 21
23 22
24 27
25 28
26 23
23 24
24 25
21 22
22 27
27 28
28 21
21 27
22 28
17 33
19 33
2 34
33 34
6 17
2 11
1 11
2 12
47 48
50 51
54 55
60 61
40 64
42 66
44 67
35 38
38 36
35 37
37 36
39 38
39 35
36 41
69 40
41 44
40 42
40 41
42 44
43 45
43 36
45 44
41 65
46 48
36 48
52 49
49 53
53 50
52 51
52 53
51 49
51 53
49 54
51 55
50 55
61 56
58 57
59 62
60 63
61 58
58 59
59 60
56 57
57 62
62 63
63 56
56 62
57 63
52 68
54 68
37 69
68 69
41 52
37 46
36 46
37 47
