ply
format ascii 1.0
comment Created in Blender version 4.3.2
element vertex 83
property float x
property float y
property float z
property uchar red
property uchar green
property uchar blue
property uchar alpha
element edge 117
property int vertex1
property int vertex2
end_header
4.6553154 0 0 101 101 101 255
3.6 -0.15 0.12 0 75 254 102
3.6 -0.15 -0.12 101 101 101 255
0.7286193 -0.27644977 0.22 101 101 101 255
-1.1295933 -0.3005721 0.22884756 0 75 254 102
1.4 -0.37422132 -0.22 101 101 101 255
3.4791582 0 0.45 101 101 101 255
2.1409712 0 0.58 0 75 254 102
1.5979037 -0.22052357 0.49273524 101 101 101 255
1.0319105 -4.664041 0.12 0 75 254 102
-0.8 -0.7823764 0.12 0 75 254 102
-0.30074129 -3.4383876 0.11971234 0 75 254 102
0.8 -0.7823764 0.12 101 101 101 255
-1.176579 -3.9133582 0.12 0 75 254 102
0.13599226 -0.6177876 -0.4582447 101 101 101 255
2.299478 -4.664041 0.12 0 75 254 102
-0.7 -2.2309039 0.233137 101 101 101 255
-0.7 -2.3440409 0.28 0 75 254 102
-0.7 -2.4571779 0.233137 0 75 254 102
-0.7 -2.5040407 0.12 101 101 101 255
-0.7 -2.4571779 0.006863 0 75 254 102
-0.7 -2.3440409 -0.04 0 75 254 102
-0.7 -2.2309039 0.006863 101 101 101 255
-0.7 -2.1840408 0.12 0 75 254 102
0.96533996 -3.2225497 -0.4582447 0 75 254 102
-0.25628302 -2.5709 -0.45853236 101 101 101 255
-1.8450294 -3.4839644 -0.4582447 101 101 101 255
0.8 -0.6177876 -0.4582447 101 101 101 255
-0.8 -0.6177876 -0.4582447 101 101 101 255
-1.3976827 -0.4016245 -0.2 101 101 101 255
0.20347026 -0.7823764 0.12 72 90 198 178
1.8482741 -3.2225497 -0.4582447 0 75 254 102
-0.7 -1.6594127 -0.3451077 101 101 101 255
-0.7 -1.7725497 -0.2982447 101 101 101 255
-0.7 -1.8856868 -0.3451077 0 75 254 102
-0.7 -1.9325498 -0.4582447 101 101 101 255
-0.7 -1.8856868 -0.5713817 101 101 101 255
-0.7 -1.7725497 -0.61824465 101 101 101 255
-0.7 -1.6594127 -0.5713817 0 75 254 102
-0.7 -1.6005422 -0.4582447 0 75 254 102
-1.3 0 0.2 72 90 198 178
-2.203599 0 -0.2 72 90 198 178
3.6 0 0.12 72 90 198 178
3.6 0 -0.12 72 90 198 178
0.61809087 0 0.22 72 90 198 178
1.4 0 -0.22 72 90 198 178
3.6 0.15 0.12 0 75 254 102
3.6 0.15 -0.12 101 101 101 255
0.7286193 0.27644977 0.22 101 101 101 255
-1.1295933 0.3005721 0.22884756 0 75 254 102
1.4 0.37422132 -0.22 101 101 101 255
1.5979037 0.22052357 0.49273524 101 101 101 255
1.0319105 4.664041 0.12 0 75 254 102
-0.8 0.7823764 0.12 0 75 254 102
-0.30074129 3.4383876 0.11971234 0 75 254 102
0.8 0.7823764 0.12 101 101 101 255
-1.176579 3.9133582 0.12 0 75 254 102
0.13599226 0.6177876 -0.4582447 101 101 101 255
2.299478 4.664041 0.12 0 75 254 102
-0.7 2.2309039 0.233137 101 101 101 255
-0.7 2.3440409 0.28 0 75 254 102
-0.7 2.4571779 0.233137 0 75 254 102
-0.7 2.5040407 0.12 101 101 101 255
-0.7 2.4571779 0.006863 0 75 254 102
-0.7 2.3440409 -0.04 0 75 254 102
-0.7 2.2309039 0.006863 101 101 101 255
-0.7 2.1840408 0.12 0 75 254 102
0.96533996 3.2225497 -0.4582447 0 75 254 102
-0.25628302 2.5709 -0.45853236 101 101 101 255
-1.8450294 3.4839644 -0.4582447 101 101 101 255
0.8 0.6177876 -0.4582447 101 101 101 255
-0.8 0.6177876 -0.4582447 101 101 101 255
-1.3976827 0.4016245 -0.2 101 101 101 255
0.20347026 0.7823764 0.12 72 90 198 178
1.8482741 3.2225497 -0.4582447 0 75 254 102
-0.7 1.6594127 -0.3451077 101 101 101 255
-0.7 1.7725497 -0.2982447 101 101 101 255
-0.7 1.8856868 -0.3451077 0 75 254 102
-0.7 1.9325498 -0.4582447 101 101 101 255
-0.7 1.8856868 -0.5713817 101 101 101 255
-0.7 1.7725497 -0.61824465 101 101 101 255
-0.7 1.6594127 -0.5713817 0 75 254 102
-0.7 1.6005422 -0.4582447 0 75 254 102
42 1
3 4
6 7
16 17
19 20
22 23
33 34
37 38
0 2
0 1
1 2
2 5
1 3
44 3
3 5
5 29
40 4
4 29
0 6
7 8
8 3
12 9
9 11
11 13
13 10
30 10
14 25
11 30
5 12
29 10
9 15
23 16
17 18
18 19
20 21
21 22
10 23
11 23
27 24
24 25
25 26
26 28
14 28
12 30
27 14
40 41
5 27
29 28
24 31
39 32
32 33
34 35
35 36
36 37
38 39
28 39
25 39
29 41
2 43
5 45
42 46
48 49
59 60
62 63
65 66
76 77
80 81
0 47
0 46
46 47
47 50
46 48
44 48
48 50
50 72
40 49
49 72
7 51
51 48
55 52
52 54
54 56
56 53
73 53
57 68
54 73
50 55
72 53
52 58
66 59
60 61
61 62
63 64
64 65
53 66
54 66
70 67
67 68
68 69
69 71
57 71
55 73
70 57
50 70
72 71
67 74
82 75
75 76
77 78
78 79
79 80
81 82
71 82
68 82
72 41
47 43
50 45
