ply
format ascii 1.0
element vertex 225
property float x
property float y
property float z
property uchar red
property uchar green
property uchar blue
property uchar alpha
element edge 224
property int vertex1
property int vertex2
end_header
-0.025123432278633118 -0.509258508682251 -0.7849735021591187 0 0 255 255
-0.15241828560829163 -0.340468168258667 -0.844062089920044 17 17 238 255
-0.12806208431720734 -0.16101421415805817 -0.855766773223877 31 31 224 255
-0.21235105395317078 0.09363821148872375 -0.9204480648040771 52 52 203 255
-0.3904065489768982 0.14611972868442535 -0.8629761934280396 67 67 188 255
0.05252037197351456 -0.3463425934314728 -0.7580419182777405 14 14 241 255
-0.02630905993282795 -0.12666144967079163 -0.8628453612327576 34 34 221 255
0.07716476917266846 0.07465695589780807 -0.8859894275665283 51 51 204 255
-0.06673095375299454 0.28748995065689087 -0.8096233606338501 72 72 183 255
0.03908344358205795 0.46560874581336975 -0.735406219959259 89 89 166 255
0.04811858758330345 0.6477612257003784 -0.7074289321899414 103 103 152 255
0.08142299950122833 0.9347470998764038 -0.5654269456863403 128 128 127 255
-0.013079360127449036 1.005609154701233 -0.28311479091644287 151 151 104 255
0.10226801037788391 1.0667048692703247 -0.013847216963768005 174 174 81 255
-0.026041656732559204 1.0446906089782715 0.2187475562095642 195 195 60 255
-0.2528729736804962 -0.43865999579429626 -0.7584105730056763 18 18 237 255
-0.43624815344810486 -0.3739718198776245 -0.7051408290863037 34 34 221 255
-0.5444507002830505 -0.21920499205589294 -0.7257330417633057 49 49 206 255
-0.5557717680931091 -0.03651946783065796 -0.7400326728820801 63 63 192 255
-0.6027263402938843 0.12331750243902206 -0.6069819331169128 79 79 176 255
-0.6074714660644531 0.2923206388950348 -0.5895758867263794 92 92 163 255
-0.6686022281646729 0.4147018790245056 -0.42995142936706543 108 108 147 255
-0.6116859316825867 0.5699540376663208 -0.3339530825614929 123 123 132 255
-0.5846763849258423 0.6898974776268005 -0.15630820393562317 140 140 115 255
-0.46988943219184875 0.7503008842468262 -0.005054742097854614 155 155 100 255
-0.387570858001709 0.9202929735183716 0.23696459829807281 179 179 76 255
-0.37543976306915283 0.8886146545410156 0.42491278052330017 194 194 61 255
-0.4047504663467407 0.8473747968673706 0.6476256251335144 211 211 44 255
-0.508987545967102 -0.458051472902298 -0.5217381715774536 51 51 204 255
-0.5973747968673706 -0.48403337597846985 -0.3852005898952484 63 63 192 255
-0.7205021977424622 -0.44799065589904785 -0.14410565793514252 84 84 171 255
-0.8316690325737 -0.38200119137763977 -0.016692526638507843 98 98 157 255
-0.8409721255302429 -0.45847833156585693 0.2508217692375183 120 120 135 255
0.11026697605848312 -0.3320033848285675 -0.8286391496658325 18 18 237 255
0.27078795433044434 -0.24275533854961395 -0.8096048831939697 32 32 223 255
0.4323824346065521 -0.07844787836074829 -0.7959878444671631 50 50 205 255
0.6015110611915588 -0.0059905871748924255 -0.6668703556060791 67 67 188 255
0.7892223000526428 0.08375541865825653 -0.6231364011764526 83 83 172 255
0.9594756364822388 0.09744935482740402 -0.41439932584762573 104 104 151 255
0.9006959199905396 0.19104686379432678 -0.12443549931049347 128 128 127 255
0.8471885919570923 0.38405847549438477 -0.0011427924036979675 146 146 109 255
0.9067252278327942 0.5322871804237366 0.23283933103084564 168 168 87 255
-0.646531343460083 -0.04098270833492279 -0.7230706810951233 64 64 191 255
-0.795578122138977 -0.002560526132583618 -0.63243168592453 78 78 177 255
-1.035581350326538 0.07165883481502533 -0.43195515871047974 103 103 152 255
-1.1019229888916016 0.20103740692138672 -0.1620883345603943 127 127 128 255
-1.0526390075683594 0.2867435812950134 0.051817744970321655 145 145 110 255
-0.8737136125564575 0.5219417214393616 0.022171884775161743 168 168 87 255
-0.21223151683807373 0.2642231285572052 -0.7428950071334839 71 71 184 255
-0.14796780049800873 0.44123175740242004 -0.6741572618484497 87 87 168 255
-0.26384884119033813 0.7206548452377319 -0.5981571674346924 111 111 144 255
-0.2788197994232178 0.8055312037467957 -0.35687950253486633 130 130 125 255
-0.36180707812309265 0.7633056640625 -0.1451655775308609 148 148 107 255
0.05914193391799927 -0.6021081209182739 -0.6394512057304382 15 15 240 255
-0.03699835389852524 -0.7497056722640991 -0.4291185736656189 36 36 219 255
0.0062958188354969025 -0.7993186712265015 -0.2937189042568207 48 48 207 255
0.051952823996543884 -0.9278717041015625 -0.19293683767318726 61 61 194 255
0.13198815286159515 -1.0537729263305664 -0.031835008412599564 77 77 178 255
0.1959466189146042 -0.9864184856414795 0.18838316202163696 96 96 159 255
0.13627545535564423 -0.8240166902542114 0.4439997375011444 120 120 135 255
0.1561589390039444 -0.7793691158294678 0.5972245931625366 132 132 123 255
0.1206539124250412 -0.6577408313751221 0.758836030960083 148 148 107 255
-0.1167227029800415 -0.9307265877723694 -0.1462051421403885 65 65 190 255
-0.13328298926353455 -1.0117290019989014 -0.06428858637809753 74 74 181 255
-0.23952612280845642 -0.9930392503738403 0.10737396776676178 90 90 165 255
-0.6643626689910889 0.7155265808105469 -0.039435259997844696 151 151 104 255
-0.7182135581970215 0.7635689973831177 0.07710415869951248 161 161 94 255
-0.8385470509529114 0.6575403213500977 0.22590315341949463 178 178 77 255
-0.3567090630531311 -0.5603800415992737 -0.5225049257278442 40 40 215 255
-0.37343356013298035 -0.5903491973876953 -0.3082052171230316 57 57 198 255
-0.4472510814666748 -0.6439366936683655 -0.17240622639656067 70 70 185 255
-0.4904852509498596 -0.6896588802337646 -0.06651149690151215 79 79 176 255
-0.704819917678833 -0.6612731218338013 0.04657001048326492 98 98 157 255
-0.681656002998352 -0.5638518929481506 0.29940539598464966 119 119 136 255
-0.7431051135063171 -0.5177521705627441 0.3915426731109619 128 128 127 255
-0.8635104894638062 -0.3870587944984436 0.5688652992248535 148 148 107 255
0.1762831211090088 -0.4618823528289795 -0.731853723526001 16 16 239 255
0.27493998408317566 -0.4660060405731201 -0.7523159384727478 24 24 231 255
0.43427738547325134 -0.4252367317676544 -0.633282482624054 40 40 215 255
0.6296216249465942 -0.3634524345397949 -0.5347654819488525 57 57 198 255
0.8441283702850342 -0.31665417551994324 -0.3924456238746643 78 78 177 255
0.912529706954956 -0.34906888008117676 -0.1624453365802765 96 96 159 255
0.9819552898406982 -0.25929149985313416 0.03590919077396393 114 114 141 255
0.9835646152496338 -0.09183403104543686 0.11393457651138306 128 128 127 255
0.9969518184661865 -0.015089981257915497 0.19474510848522186 137 137 118 255
1.0100202560424805 0.03874031454324722 0.5119104385375977 161 161 94 255
0.8646929264068604 0.20311278104782104 0.5684878826141357 179 179 76 255
0.7447516918182373 0.16261740028858185 0.7134692668914795 194 194 61 255
0.5775027275085449 0.2862394452095032 0.7560028433799744 210 210 45 255
0.37136685848236084 0.44107943773269653 0.7135103344917297 230 230 25 255
0.18346363306045532 -0.7011204957962036 -0.5517410039901733 29 29 226 255
0.20029297471046448 -0.8208956122398376 -0.392616331577301 44 44 211 255
0.37731385231018066 -0.8388711810112 -0.34480369091033936 58 58 197 255
0.4730479419231415 -0.781150221824646 -0.24051953852176666 70 70 185 255
0.03027072548866272 -0.5773887038230896 0.8025152683258057 158 158 97 255
-0.0685766190290451 -0.43155932426452637 0.9023531675338745 173 173 82 255
-0.027272939682006836 -0.10451693832874298 0.9858602285385132 200 200 55 255
0.08395528793334961 0.18240106105804443 1.0593866109848022 224 224 31 255
-0.031732916831970215 0.40755701065063477 1.0598602294921875 243 243 12 255
0.6168367266654968 -0.44098347425460815 -0.43104997277259827 61 61 194 255
0.639862596988678 -0.558892548084259 -0.26526033878326416 77 77 178 255
0.7994526624679565 -0.5758295059204102 0.0032592564821243286 101 101 154 255
0.7622506618499756 -0.6131103038787842 0.1602863371372223 113 113 142 255
0.7762970924377441 -0.581098198890686 0.37100011110305786 130 130 125 255
0.9097016453742981 -0.5576775670051575 0.48391422629356384 144 144 111 255
0.9092215299606323 -0.46660709381103516 0.6365199089050293 157 157 98 255
0.4879187345504761 0.025182239711284637 -0.7276664972305298 60 60 195 255
0.6029692888259888 0.23521354794502258 -0.6989876627922058 79 79 176 255
0.7190568447113037 0.42994460463523865 -0.6416358947753906 97 97 158 255
0.8041277527809143 0.4528103470802307 -0.5114353895187378 109 109 146 255
-0.47984516620635986 -0.7433561086654663 0.16315633058547974 97 97 158 255
-0.5556843280792236 -0.6240069270133972 0.40118080377578735 119 119 136 255
-0.725568950176239 -0.5710820555686951 0.6068780422210693 140 140 115 255
1.0426783561706543 -0.28952205181121826 0.25941306352615356 132 132 123 255
1.0090718269348145 -0.2782362401485443 0.4263717830181122 145 145 110 255
0.9559811353683472 -0.2238866239786148 0.6990714073181152 167 167 88 255
-0.02759408950805664 0.2758997082710266 1.0492292642593384 235 235 20 255
-0.6611227989196777 -0.23619994521141052 -0.5954428911209106 62 62 193 255
-0.766162633895874 -0.26596564054489136 -0.34201955795288086 83 83 172 255
0.6938588619232178 0.14603471755981445 -0.6785054206848145 81 81 174 255
0.7457847595214844 0.2557731568813324 -0.6460301280021667 90 90 165 255
-0.2625338137149811 0.8703674674034119 0.8480820655822754 230 230 25 255
-1.0258216857910156 -0.08457116782665253 -0.1833384782075882 111 111 144 255
0.22923292219638824 -0.9349722862243652 -0.19585299491882324 62 62 193 255
0.3689703941345215 -0.9654462337493896 0.050433360040187836 84 84 171 255
0.5020415782928467 -0.8111729621887207 0.24565286934375763 105 105 150 255
0.6406718492507935 -0.6621813178062439 0.41870632767677307 126 126 129 255
0.7128018140792847 -0.6205404996871948 0.5564494132995605 138 138 117 255
0.718829333782196 -0.5617924928665161 0.7353712916374207 153 153 102 255
0.6619374752044678 -0.33575260639190674 0.750316321849823 171 171 84 255
0.5319228172302246 -0.1467309296131134 0.8365254402160645 190 190 65 255
0.44127392768859863 0.04702039435505867 0.9582314491271973 209 209 46 255
0.2955239713191986 0.11914398521184921 1.0295336246490479 222 222 33 255
-0.8408695459365845 0.2381211817264557 -0.5665454864501953 98 98 157 255
0.39803364872932434 -0.8048129081726074 0.4046245515346527 120 120 135 255
0.4778039753437042 -0.7608184814453125 0.597858726978302 137 137 118 255
0.46505507826805115 -0.6646463871002197 0.7185451984405518 148 148 107 255
0.4626365303993225 -0.4175841510295868 0.7707968950271606 168 168 87 255
0.3550790846347809 -0.20171210169792175 0.8870179057121277 189 189 66 255
0.18683603405952454 -0.07700203359127045 0.9899160861968994 207 207 48 255
0.19006916880607605 0.2766838073730469 -0.7314274311065674 73 73 182 255
0.20399831235408783 0.5291405916213989 -0.7174831628799438 92 92 163 255
0.4038214683532715 0.7100968360900879 -0.72430020570755 113 113 142 255
0.4010726511478424 0.8451803922653198 -0.5553700923919678 130 130 125 255
0.4114852845668793 0.8979722261428833 -0.34688231348991394 146 146 109 255
-0.15464630722999573 -0.7959418296813965 -0.24507343769073486 53 53 202 255
-0.3145762085914612 -0.6816041469573975 -0.1468847393989563 70 70 185 255
-0.32870516180992126 -0.1389402151107788 -0.9546345472335815 48 48 207 255
-0.4538623094558716 -0.04149733483791351 -0.8810502290725708 62 62 193 255
-0.46365582942962646 0.06777536869049072 -0.8245604634284973 71 71 184 255
0.8823354244232178 0.5776277184486389 0.3311394453048706 176 176 79 255
0.7333378791809082 0.5637097358703613 0.4389728307723999 191 191 64 255
0.9399398565292358 -0.3900696039199829 0.07965286821126938 115 115 140 255
0.6337413787841797 -0.037366218864917755 -0.735781729221344 66 66 189 255
0.7731418609619141 0.005237989127635956 -0.6953378319740295 78 78 177 255
-1.1234136819839478 0.032434530556201935 0.10370302945375443 136 136 119 255
-0.0096266008913517 0.43579885363578796 1.0123422145843506 248 248 7 255
0.987992525100708 -0.14813940227031708 -0.33742257952690125 95 95 160 255
0.9464566111564636 -0.023010991513729095 -0.07050809264183044 118 118 137 255
0.8944810628890991 0.14429457485675812 0.09620299935340881 137 137 118 255
0.9356648921966553 0.25054627656936646 0.21324332058429718 149 149 106 255
0.4566503167152405 0.16280914843082428 -0.7593690156936646 68 68 187 255
0.9639634490013123 -0.39416801929473877 0.2620173692703247 129 129 126 255
-1.0494786500930786 0.03729478642344475 0.3953048586845398 159 159 96 255
-0.8743336200714111 0.2437829077243805 0.49102410674095154 181 181 74 255
-0.696428656578064 0.2725776433944702 0.5631543397903442 196 196 59 255
0.3391094207763672 0.15923166275024414 1.0011993646621704 221 221 34 255
0.27372920513153076 0.2977175712585449 0.840181291103363 238 238 17 255
0.6970994472503662 0.6162455677986145 -0.3177051544189453 130 130 125 255
0.7178634405136108 0.7172098159790039 -0.13000579178333282 146 146 109 255
0.8309239149093628 0.7405809164047241 0.04156403988599777 162 162 93 255
-0.8051903247833252 0.7277641296386719 0.24881067872047424 177 177 78 255
-0.669090211391449 0.7152689695358276 0.44614866375923157 195 195 60 255
-0.6358014345169067 0.6734774708747864 0.5242046117782593 202 202 53 255
-0.6539570093154907 -0.4281998574733734 0.7696344256401062 157 157 98 255
-0.5228404402732849 -0.1930457204580307 0.8703845739364624 179 179 76 255
-0.44250908493995667 0.05615709722042084 0.861571729183197 200 200 55 255
-0.3988519608974457 0.31480687856674194 0.8268036246299744 220 220 35 255
-0.20673203468322754 0.42926523089408875 0.9954222440719604 241 241 14 255
-0.12264575809240341 0.5816240310668945 1.0170338153839111 255 255 0 255
-0.1597830355167389 0.9845889806747437 -0.030138015747070312 173 173 82 255
-0.23125822842121124 0.9862980842590332 0.1726454496383667 189 189 66 255
0.9992611408233643 -0.38863420486450195 0.38483086228370667 139 139 116 255
0.9511662125587463 -0.2870863974094391 0.6218854188919067 159 159 96 255
-0.43234604597091675 0.2652181386947632 -0.6283938884735107 90 90 165 255
-0.003311662934720516 -1.046580195426941 0.015432818792760372 80 80 175 255
-0.9358742237091064 0.49233996868133545 0.26859092712402344 169 169 86 255
0.4443933665752411 -0.2193177342414856 -0.6861474514007568 48 48 207 255
0.8950616121292114 -0.5373063087463379 0.19100600481033325 117 117 138 255
0.34940019249916077 -0.696466326713562 -0.573573648929596 42 42 213 255
0.5075839757919312 -0.7307941913604736 -0.3637857139110565 62 62 193 255
0.7474641799926758 -0.21418946981430054 -0.5907583236694336 73 73 182 255
0.9074867963790894 -0.06986424326896667 -0.5646343231201172 89 89 166 255
-0.5432858467102051 0.708512544631958 0.6586017608642578 214 214 41 255
-1.1077810525894165 0.19644318521022797 0.2361292988061905 152 152 103 255
-0.9644326567649841 0.3025936484336853 0.3756672441959381 169 169 86 255
-0.880401074886322 0.4152996242046356 0.39624860882759094 180 180 75 255
-0.20586605370044708 1.0175855159759521 0.6047669649124146 215 215 40 255
-0.11192911118268967 0.9200303554534912 0.7075060606002808 228 228 27 255
0.60481196641922 0.7976810932159424 -0.023650793358683586 160 160 95 255
0.6386480331420898 0.8390515446662903 0.1994168907403946 177 177 78 255
-0.6139419078826904 -0.32891541719436646 0.8656318783760071 168 168 87 255
0.8485156893730164 0.15995439887046814 -0.5477772355079651 93 93 162 255
0.8173543214797974 0.34705209732055664 -0.34003978967666626 114 114 141 255
0.8120786547660828 0.5985980033874512 -0.2111208587884903 136 136 119 255
0.8790563344955444 0.6202676296234131 0.018708743155002594 155 155 100 255
0.7847068309783936 0.7233110666275024 0.1376829594373703 169 169 86 255
0.7267110347747803 0.7713035345077515 0.21329239010810852 177 177 78 255
0.6306150555610657 -0.740196943283081 0.5905590057373047 141 141 114 255
0.6839828491210938 -0.7116876840591431 0.674608588218689 149 149 106 255
0.5050815343856812 -0.7086116671562195 -0.49635279178619385 55 55 200 255
-0.9791233539581299 0.36122292280197144 -0.3478460907936096 120 120 135 255
-0.7760918736457825 0.5087667107582092 0.4395139217376709 187 187 68 255
-0.5614572763442993 0.4688625633716583 0.5623487830162048 207 207 48 255
-0.49545523524284363 0.5275596976280212 0.7240898609161377 221 221 34 255
0.05318385362625122 0.7435098886489868 0.7820501923561096 248 248 7 255
0.373430073261261 -0.7257078886032104 0.7033339738845825 148 148 107 255
-0.47950172424316406 -0.6541934013366699 0.6110875010490417 136 136 119 255
-0.5272725820541382 -0.5631451606750488 0.7763965129852295 151 151 104 255
0.7713726758956909 -0.5863107442855835 0.6561781167984009 148 148 107 255
0.795878529548645 -0.3813771605491638 0.8057190179824829 167 167 88 255
0.15926559269428253 1.0457395315170288 0.23073478043079376 194 194 61 255
0.9821059107780457 -0.518540620803833 0.30511096119880676 128 128 127 255
-0.39380502700805664 0.7163054943084717 -0.4533315896987915 126 126 129 255
-0.8280960321426392 -0.21987852454185486 0.7567006349563599 167 167 88 255
0 1
1 2
0 5
5 6
6 7
0 15
0 33
33 34
0 53
0 76
76 77
77 78
2 3
2 147
147 148
148 149
3 4
3 48
7 8
8 9
9 10
10 11
11 12
12 13
7 140
140 141
141 142
142 143
143 144
13 14
13 221
15 16
15 68
68 69
69 70
70 71
16 17
16 28
28 29
29 30
30 31
31 32
17 18
18 19
19 20
20 21
21 22
22 23
17 42
42 43
17 117
117 118
118 122
122 155
23 24
24 25
25 26
23 65
65 66
26 27
27 121
26 197
197 198
198 215
34 35
34 187
35 36
35 106
106 107
107 108
108 109
109 168
168 169
35 153
153 154
35 161
36 37
36 119
119 120
37 38
38 39
39 40
40 41
41 150
150 151
37 202
202 203
203 204
204 205
205 206
206 207
43 44
44 45
45 46
43 133
133 211
46 47
46 186
186 212
212 213
213 214
48 49
49 50
48 184
50 51
51 52
52 180
180 181
50 223
53 54
53 90
54 55
54 145
145 146
55 56
55 62
62 63
63 64
56 57
57 58
58 59
59 60
60 61
61 94
94 95
95 96
96 97
56 185
66 67
66 171
171 172
71 72
72 73
73 74
74 75
75 224
71 110
110 111
78 79
78 99
99 100
100 101
79 80
79 191
191 192
80 81
80 157
157 158
158 159
159 160
81 82
81 152
152 162
162 182
182 183
82 83
83 84
84 85
85 86
86 87
87 88
88 89
82 113
113 114
114 115
90 91
90 189
91 92
92 93
91 123
123 124
124 125
97 98
97 116
116 156
101 102
102 103
103 104
104 105
101 188
188 222
111 112
112 174
111 217
217 218
125 126
125 134
134 135
126 127
126 208
208 209
127 128
128 129
129 130
130 131
127 219
219 220
131 132
131 166
166 167
135 136
136 137
137 138
138 139
135 216
155 163
163 164
164 165
155 194
194 195
195 196
169 170
169 199
199 200
172 173
172 193
174 175
175 176
176 177
177 178
178 179
174 201
189 190
189 210
