ply
format ascii 1.0
element vertex 149
property float x
property float y
property float z
property uchar red
property uchar green
property uchar blue
property uchar alpha
element edge 148
property int vertex1
property int vertex2
end_header
0.09210759401321411 0.5077190399169922 0.9690450429916382 0 0 255 255
-0.009223399683833122 0.3899650275707245 1.0028579235076904 8 8 247 255
-0.07512249052524567 0.4727824628353119 0.8908441066741943 15 15 240 255
-0.12325362861156464 0.5437886714935303 0.75632244348526 23 23 232 255
-0.277432382106781 0.4467296600341797 0.7870742678642273 32 32 223 255
-0.3731227517127991 0.5622289180755615 0.6899824142456055 41 41 214 255
-0.5181271433830261 0.5144692659378052 0.6761943697929382 49 49 206 255
-0.5151311755180359 0.6414064168930054 0.604576826095581 56 56 199 255
-0.6202767491340637 0.6423715353012085 0.5619046688079834 61 61 194 255
-0.6439670324325562 0.672828733921051 0.49285224080085754 65 65 190 255
-0.7173928022384644 0.5701663494110107 0.4437583386898041 72 72 183 255
-0.7612960338592529 0.563086748123169 0.35545992851257324 77 77 178 255
-0.7219862937927246 0.6057338714599609 0.21014171838760376 84 84 171 255
-0.6982104778289795 0.6266888976097107 0.03504181280732155 93 93 162 255
-0.8552247285842896 0.6009543538093567 -0.05092354118824005 102 102 153 255
-0.7642461061477661 0.6172411441802979 -0.2513386905193329 113 113 142 255
-0.8917338848114014 0.41673579812049866 -0.35639387369155884 126 126 129 255
-0.775504469871521 0.35137829184532166 -0.5880485773086548 139 139 116 255
-0.6679666042327881 0.0045296624302864075 -0.5843814611434937 157 157 98 255
-0.5315846800804138 -0.27777737379074097 -0.6020262241363525 172 172 83 255
-0.3918827176094055 -0.402571439743042 -0.6798930168151855 182 182 73 255
-0.3116700351238251 -0.5271658897399902 -0.6405296325683594 190 190 65 255
-0.13661077618598938 -0.5682698488235474 -0.6169872879981995 198 198 57 255
0.606674313545227 0.008902013301849365 -0.9407713413238525 0 0 255 255
0.6459325551986694 0.1940506100654602 -0.8653300404548645 10 10 245 255
0.47696489095687866 0.23421385884284973 -0.9084550738334656 19 19 236 255
0.5033220052719116 0.34314972162246704 -0.7945065498352051 27 27 228 255
0.32295265793800354 0.4461340606212616 -0.758635401725769 37 37 218 255
0.28742456436157227 0.35468149185180664 -0.8481764793395996 44 44 211 255
0.19468413293361664 0.245857834815979 -0.9359485507011414 52 52 203 255
0.10998943448066711 0.023560132831335068 -0.9665439128875732 64 64 191 255
0.2625705301761627 -0.1505829393863678 -1.0285707712173462 75 75 180 255
0.14403685927391052 -0.3109399080276489 -0.992666482925415 85 85 170 255
-0.0541122704744339 -0.25399050116539 -0.9738204479217529 95 95 160 255
-0.17291390895843506 -0.3696582019329071 -0.8459545373916626 106 106 149 255
-0.030311748385429382 -0.4041447341442108 -0.7589520215988159 114 114 141 255
0.038968510925769806 -0.536449670791626 -0.7130928635597229 122 122 133 255
-0.646783173084259 0.6968917846679688 -0.5848519802093506 0 0 255 255
-0.3640032112598419 0.8089621067047119 -0.6616926789283752 15 15 240 255
-0.3247840702533722 0.7652820348739624 -0.4396839737892151 27 27 228 255
-0.24956318736076355 0.9101420044898987 -0.3178594410419464 37 37 218 255
-0.17646992206573486 0.9739887714385986 -0.4040147662162781 43 43 212 255
-0.04149980843067169 0.9198781251907349 -0.5079364776611328 52 52 203 255
-0.13437211513519287 0.862826406955719 -0.7217613458633423 64 64 191 255
-0.08486291766166687 0.6856580376625061 -0.803573489189148 74 74 181 255
-0.1333923041820526 0.6519105434417725 -0.8541558384895325 77 77 178 255
-0.07851522415876389 0.47756636142730713 -0.8523372411727905 86 86 169 255
-0.05016043782234192 0.21037350594997406 -0.8329451084136963 100 100 155 255
-0.4187874495983124 -0.05998506024479866 -0.6779180765151978 0 0 255 255
-0.3374311327934265 -0.2599524259567261 -0.809944212436676 12 12 243 255
0.295940637588501 1.017263412475586 0.30024608969688416 0 0 255 255
0.38237082958221436 0.9637472629547119 0.3118361234664917 5 5 250 255
0.5608143210411072 0.9039309024810791 0.12238633632659912 18 18 237 255
0.4318379759788513 0.8603610992431641 -0.022734839469194412 28 28 227 255
0.25625452399253845 0.9632529616355896 -0.025471119210124016 38 38 217 255
0.11624972522258759 1.0869611501693726 -0.048556871712207794 47 47 208 255
-0.06842780858278275 1.0119370222091675 -0.07713548839092255 57 57 198 255
-0.2049589306116104 0.9267722368240356 0.004420317709445953 66 66 189 255
-0.3334168791770935 0.7847226858139038 -0.019901707768440247 75 75 180 255
-0.44177499413490295 0.7127096652984619 -0.0347558856010437 82 82 173 255
-0.6012322902679443 0.6572854518890381 -0.13747148215770721 92 92 163 255
0.18047165870666504 1.019874930381775 0.17277327179908752 0 0 255 255
0.29932472109794617 0.7199603319168091 0.7928221225738525 0 0 255 255
0.2574877142906189 0.7927215099334717 0.6485625505447388 8 8 247 255
0.09874133765697479 0.7989354133605957 0.5945113301277161 16 16 239 255
-0.03525519371032715 0.8443386554718018 0.5186313390731812 24 24 231 255
-0.17651304602622986 0.7520159482955933 0.49456900358200073 33 33 222 255
-0.2871673107147217 0.6572808623313904 0.6113274693489075 42 42 213 255
-0.5608891248703003 -0.7678693532943726 0.08151599764823914 0 0 255 255
-0.47916412353515625 -0.7624025344848633 -0.04469133913516998 7 7 248 255
-0.49442628026008606 -0.6766527891159058 -0.09243546426296234 12 12 243 255
-0.5112632513046265 -0.6023387908935547 -0.05867341160774231 16 16 239 255
-0.6289511919021606 -0.568996012210846 -0.16272905468940735 24 24 231 255
-0.5584712624549866 -0.6047307252883911 -0.3018462359905243 32 32 223 255
-0.4721545875072479 -0.6419912576675415 -0.2496413290500641 37 37 218 255
-0.39796966314315796 -0.7371899485588074 -0.2883756458759308 44 44 211 255
-0.3558565080165863 -0.6481245160102844 -0.47800368070602417 54 54 201 255
0.32372862100601196 -0.0413798913359642 0.9426496624946594 0 0 255 255
0.4075000286102295 0.11562621593475342 0.981010913848877 9 9 246 255
0.5531843900680542 0.0675966814160347 0.8826984763145447 18 18 237 255
0.6541628241539001 0.2598852515220642 0.9013246297836304 29 29 226 255
0.7394286394119263 0.3846082091331482 0.7966333627700806 38 38 217 255
0.7915281057357788 0.5244250297546387 0.6525116562843323 48 48 207 255
0.8437615633010864 0.358295202255249 0.5206269025802612 59 59 196 255
0.9545009136199951 0.2720118463039398 0.31463178992271423 71 71 184 255
1.0225517749786377 0.32321178913116455 0.1294359564781189 81 81 174 255
1.0420342683792114 0.17977499961853027 -0.03105325996875763 91 91 164 255
1.066802740097046 0.12529006600379944 -0.19323515892028809 100 100 155 255
0.9896664619445801 0.2183196246623993 -0.33700284361839294 109 109 146 255
0.9950621128082275 0.052753299474716187 -0.4253356158733368 118 118 137 255
0.8958448171615601 0.1741044670343399 -0.6043868064880371 130 130 125 255
0.8562263250350952 0.04597070813179016 -0.6605897545814514 137 137 118 255
0.7587371468544006 -0.15940919518470764 -0.7836963534355164 150 150 105 255
0.580699622631073 -0.31220924854278564 -0.8431665897369385 162 162 93 255
0.5892583131790161 -0.19877898693084717 -0.981568455696106 171 171 84 255
0.45393770933151245 -0.19225051999092102 -1.0610371828079224 178 178 77 255
-0.5222271680831909 -0.8773987293243408 0.12314508110284805 0 0 255 255
0.673340916633606 -0.34798315167427063 0.74840247631073 0 0 255 255
0.7866686582565308 -0.06989692151546478 0.6921349167823792 15 15 240 255
0.7858204245567322 0.10961280763149261 0.652692437171936 24 24 231 255
-0.8704142570495605 0.04911071062088013 0.35939016938209534 0 0 255 255
-0.8484112024307251 0.09962145239114761 0.20592805743217468 8 8 247 255
-0.8523370027542114 0.27874433994293213 0.015194356441497803 21 21 234 255
-0.8998898267745972 0.3493806719779968 -0.16885286569595337 31 31 224 255
0.6704811453819275 0.7842429876327515 0.4167236089706421 0 0 255 255
0.8171912431716919 0.7182018160820007 0.2725829482078552 11 11 244 255
0.8024775385856628 0.7134515643119812 0.07235997915267944 20 20 235 255
0.6449649333953857 0.7036609649658203 -0.16173887252807617 34 34 221 255
0.552634596824646 0.660820484161377 -0.39440807700157166 47 47 208 255
0.3834807276725769 0.7795671224594116 -0.2805238366127014 58 58 197 255
0.19505402445793152 0.8842775821685791 -0.3601734936237335 70 70 185 255
0.21994882822036743 0.8131859302520752 -0.5777627229690552 81 81 174 255
0.2688010334968567 0.6412901878356934 -0.7159093022346497 92 92 163 255
0.8288192749023438 -0.42897480726242065 0.5208903551101685 0 0 255 255
0.9366054534912109 -0.34124886989593506 0.3860551416873932 10 10 245 255
0.84006267786026 -0.3178730905056 0.20351259410381317 20 20 235 255
0.7660713791847229 -0.3491475284099579 -0.004038741812109947 31 31 224 255
0.7547140717506409 -0.2546757459640503 -0.1814911812543869 41 41 214 255
0.9164742827415466 -0.06690935790538788 -0.23353150486946106 53 53 202 255
0.38522493839263916 0.8833461999893188 0.6185157895088196 0 0 255 255
-0.8846381902694702 0.20888713002204895 0.3296803832054138 0 0 255 255
0.9782522916793823 0.3293777406215668 -0.26018473505973816 0 0 255 255
-0.6376076936721802 -0.7004579305648804 0.23236778378486633 0 0 255 255
-0.6373107433319092 -0.592172384262085 0.37704789638519287 9 9 246 255
-0.6745388507843018 -0.4303191602230072 0.4107048809528351 17 17 238 255
-0.6936430931091309 -0.23558351397514343 0.4320198893547058 27 27 228 255
-0.808013916015625 -0.20198458433151245 0.3509298264980316 34 34 221 255
-0.7658624649047852 -0.03896141052246094 0.2512027621269226 44 44 211 255
0.18258999288082123 -0.7621862888336182 0.6405022144317627 0 0 255 255
0.22151389718055725 -0.7708967328071594 0.4976712465286255 7 7 248 255
0.4401457905769348 -0.7020049095153809 0.4949340522289276 19 19 236 255
0.6050583720207214 -0.6592011451721191 0.46458011865615845 27 27 228 255
0.5249475240707397 -0.7662489414215088 0.2797383666038513 38 38 217 255
0.310381144285202 -0.8417742848396301 0.25605136156082153 49 49 206 255
0.08270034193992615 -0.9264193177223206 0.3113580346107483 62 62 193 255
-0.017002716660499573 -0.8965479731559753 0.4048430025577545 69 69 186 255
-0.18598288297653198 -0.8310863971710205 0.47977548837661743 78 78 177 255
-0.43074291944503784 -0.7405906915664673 0.47792378067970276 91 91 164 255
-0.531348466873169 -0.6025190353393555 0.4769439697265625 99 99 156 255
0.23888054490089417 0.9119905233383179 0.426973819732666 0 0 255 255
0.5562745928764343 -0.6658397912979126 -0.27642822265625 0 0 255 255
0.6660025119781494 -0.5031266212463379 -0.2074865698814392 10 10 245 255
0.2495824694633484 -0.7849669456481934 -0.3016158640384674 0 0 255 255
0.4206470549106598 -0.685089111328125 -0.3886943757534027 11 11 244 255
0.46068447828292847 0.7752900123596191 0.7421317100524902 0 0 255 255
0.4877927601337433 0.8712000846862793 0.5457682609558105 11 11 244 255
-0.9119807481765747 -0.21069158613681793 -0.34651264548301697 0 0 255 255
-0.7807676196098328 -0.3344217538833618 -0.49140360951423645 11 11 244 255
-0.5917819738388062 -0.4827401638031006 -0.45248469710350037 23 23 232 255
0 1
1 2
2 3
3 4
4 5
5 6
6 7
7 8
8 9
9 10
10 11
11 12
12 13
13 14
14 15
5 67
67 66
66 65
65 64
64 63
15 16
15 60
60 59
59 58
58 57
57 56
56 55
55 54
54 53
53 52
52 51
16 17
17 18
18 19
19 20
16 103
103 102
102 101
20 21
20 49
49 48
21 22
22 36
36 35
35 34
34 33
33 32
32 31
21 76
76 75
75 74
74 73
23 24
24 25
25 26
26 27
27 28
28 29
27 112
112 111
111 110
110 109
109 108
108 107
107 106
106 105
105 104
104 145
145 144
29 30
30 31
29 47
47 46
46 45
45 44
44 43
43 42
42 41
41 40
40 39
39 38
38 37
31 95
95 94
94 93
93 92
92 91
91 90
90 89
61 50
50 51
51 139
62 63
63 119
96 68
68 69
69 70
70 71
71 72
72 73
73 148
148 147
147 146
77 78
78 79
79 80
80 81
81 82
82 83
83 84
84 85
85 86
86 87
87 88
83 99
99 98
98 97
88 89
88 121
89 118
118 117
120 100
100 101
101 127
127 126
126 125
125 124
124 123
113 114
114 115
115 116
116 117
117 141
141 140
140 143
143 142
122 123
123 138
138 137
137 136
136 135
135 134
134 133
133 132
132 131
131 130
130 129
129 128
