ply
format ascii 1.0
comment Created in Blender version 4.3.2
element vertex 69
property float x
property float y
property float z
property uchar red
property uchar green
property uchar blue
property uchar alpha
element edge 114
property int vertex1
property int vertex2
end_header
0.5054926 -0.04681647 -0.08531732 0 254 0 0
0.29516888 -0.13721514 0.03390692 0 254 254 0
0.29516888 -0.16367836 -0.092064716 0 254 254 0
0.47948995 -0.03725794 0.023408234 0 254 0 0
0.5523091 0 0 0 254 0 0
-0.021192634 -0.15197426 -0.10287349 0 0 254 0
-0.021192634 -0.112418264 0.052668527 0 0 254 0
-0.3372038 -0.17870219 -0.09702144 0 0 254 0
0.18335244 0 0.0702247 0 254 254 0
-0.3372038 -0.15223897 0.04681647 0 0 254 0
-0.19675438 0 0.064372644 0 0 254 0
0.36972052 -0.111213155 -0.06618192 0 254 254 0
0.38845146 -0.16090332 -0.061986722 0 254 254 0
0.52890086 -0.11704117 -0.011704117 0 254 0 0
-0.083179176 -0.3757195 -0.017867077 254 0 0 0
-0.4343027 -0.3554517 -0.017867077 254 0 0 0
-0.33631477 -0.16426656 -0.032351095 0 0 254 0
0.06073619 -0.12777725 -0.033336136 0 0 254 0
-0.20022035 -0.42253596 -0.023719138 254 0 0 0
0.050639484 -0.2966185 -0.05297943 254 0 0 0
-0.2903873 -0.2966185 -0.05297943 254 0 0 0
-0.4776532 -0.1508464 0.059925083 0 254 254 0
-0.4776532 -0.027855799 0.059925083 0 254 254 0
-0.3372038 -0.03394194 0.05383894 0 0 254 0
-0.3372038 -0.03394194 -0.0070224702 0 0 254 0
-0.3372038 -0.14476025 -0.06893156 0 0 254 0
-0.3372038 -0.14476025 0.05383894 0 0 254 0
-0.4776532 -0.027855799 -0.013108611 0 254 254 0
-0.4776532 -0.1508464 -0.0750177 0 254 254 0
-0.021192634 0.0024853658 -0.10287945 0 0 254 0
-0.021192634 0 0.052668527 0 0 254 0
-0.3372038 0.0025646747 -0.03511235 0 0 254 0
-0.3372038 0.0025646747 0.04681647 0 0 254 0
0.12825672 -0.15066335 -0.08176969 0 0 254 0
0.18881695 -0.16075234 -0.09702144 0 127 254 0
-0.022615088 -0.12776482 -0.041770555 0 0 254 0
0.5116931 0 -0.09107897 0 254 0 0
0.5054926 0.04681647 -0.08531732 0 254 0 0
0.29516888 0.13721514 0.03390692 0 254 254 0
0.29516888 0.16367836 -0.092064716 0 254 254 0
0.47948995 0.03725794 0.023408234 0 254 0 0
-0.021192634 0.15197426 -0.10287349 0 0 254 0
-0.021192634 0.112418264 0.052668527 0 0 254 0
-0.3372038 0.17870219 -0.09702144 0 0 254 0
-0.3372038 0.15223897 0.04681647 0 0 254 0
0.36972052 0.111213155 -0.06618192 0 254 254 0
0.38845146 0.16090332 -0.061986722 0 254 254 0
0.52890086 0.11704117 -0.011704117 0 254 0 0
-0.083179176 0.3757195 -0.017867077 254 0 0 0
-0.4343027 0.3554517 -0.017867077 254 0 0 0
-0.33631477 0.16426656 -0.032351095 0 0 254 0
0.06073619 0.12777725 -0.033336136 0 0 254 0
-0.20022035 0.42253596 -0.023719138 254 0 0 0
0.050639484 0.2966185 -0.05297943 254 0 0 0
-0.2903873 0.2966185 -0.05297943 254 0 0 0
-0.4776532 0.1508464 0.059925083 0 254 254 0
-0.4776532 0.027855799 0.059925083 0 254 254 0
-0.3372038 0.03394194 0.05383894 0 0 254 0
-0.3372038 0.03394194 -0.0070224702 0 0 254 0
-0.3372038 0.14476025 -0.06893156 0 0 254 0
-0.3372038 0.14476025 0.05383894 0 0 254 0
-0.4776532 0.027855799 -0.013108611 0 254 254 0
-0.4776532 0.1508464 -0.0750177 0 254 254 0
-0.021192634 -0.0024853658 -0.10287945 0 0 254 0
-0.3372038 -0.0025646747 -0.03511235 0 0 254 0
-0.3372038 -0.0025646747 0.04681647 0 0 254 0
0.12825672 0.15066335 -0.08176969 0 0 254 0
0.18881695 0.16075234 -0.09702144 0 127 254 0
-0.022615088 0.12776482 -0.041770555 0 0 254 0
12 13
15 16
19 20
25 26
5 29
7 31
9 32
0 3
3 1
0 2
2 1
4 3
4 0
1 6
34 5
6 9
5 7
5 6
7 9
8 1
10 9
6 30
11 13
1 13
17 14
14 18
18 15
35 16
17 18
16 14
16 18
14 19
16 20
15 20
26 21
23 22
24 27
25 28
26 23
23 24
24 25
21 22
22 27
27 28
28 21
21 27
22 28
17 33
19 33
2 34
33 34
6 17
2 11
2 12
17 35
0 36
30 10
8 30
46 47
49 50
53 54
59 60
41 63
43 64
44 65
37 40
40 38
37 39
39 38
4 40
4 37
38 42
67 41
42 44
41 43
41 42
43 44
8 38
10 44
42 30
45 47
38 47
51 48
48 52
52 49
68 50
51 52
50 48
50 52
48 53
50 54
49 54
60 55
57 56
58 61
59 62
60 57
57 58
58 59
55 56
56 61
61 62
62 55
55 61
56 62
51 66
53 66
39 67
66 67
42 51
39 45
39 46
51 68
37 36
