ply
format ascii 1.0
comment Created in Blender version 4.3.2
element vertex 33
property float x
property float y
property float z
property uchar red
property uchar green
property uchar blue
property uchar alpha
element edge 51
property int vertex1
property int vertex2
end_header
0.54461163 0 -0.013449704 0 254 254 0
0.4408488 0 0.0440751 0 254 254 0
0.22796458 0 0.09089777 0 254 254 0
0.22796458 0 -0.058170054 0 254 254 0
-0.32649136 -0.2480557 -0.002269618 0 0 254 0
-0.38925394 0 0.0722643 0 0 254 0
-0.38925394 0 -0.04698997 0 0 254 0
0.68296206 0 -0.012345922 0 254 254 0
-0.11153847 -0.5593674 -0.04020425 254 0 254 0
0.16414788 -0.1635169 0.026605975 0 0 254 0
0.40626118 -0.7675949 -0.020903096 254 0 0 0
-0.3471372 -0.1736839 0.015658056 0 254 0 0
-0.51611716 -0.20902582 0.067565955 0 254 0 0
-0.37273756 -0.075572364 0.04646869 0 254 0 0
-0.37273756 -0.075572364 -0.029875442 0 254 0 0
-0.51611716 -0.048832744 -0.05541535 0 254 0 0
-0.3471372 -0.1736839 -0.0088091325 0 254 0 0
-0.51611716 -0.20902582 -0.05541535 0 254 0 0
-0.51611716 -0.048832744 0.067565955 0 254 0 0
0.07453506 -0.5388831 0.036316324 254 0 0 0
-0.32649136 0.2480557 -0.002269618 0 0 254 0
-0.11153847 0.5593674 -0.04020425 254 0 254 0
0.16414788 0.1635169 0.026605975 0 0 254 0
0.40626118 0.7675949 -0.020903096 254 0 0 0
-0.3471372 0.1736839 0.015658056 0 254 0 0
-0.51611716 0.20902582 0.067565955 0 254 0 0
-0.37273756 0.075572364 0.04646869 0 254 0 0
-0.37273756 0.075572364 -0.029875442 0 254 0 0
-0.51611716 0.048832744 -0.05541535 0 254 0 0
-0.3471372 0.1736839 -0.0088091325 0 254 0 0
-0.51611716 0.20902582 -0.05541535 0 254 0 0
-0.51611716 0.048832744 0.067565955 0 254 0 0
0.07453506 0.5388831 0.036316324 254 0 0 0
1 2
4 5
19 4
9 4
11 12
14 15
16 17
10 19
8 19
6 4
0 7
0 9
9 2
3 9
5 6
2 5
3 6
9 10
10 8
8 4
9 8
13 18
12 18
18 15
15 17
17 12
9 19
0 3
0 1
20 5
32 20
22 20
24 25
27 28
29 30
23 32
21 32
6 20
0 22
22 2
3 22
22 23
23 21
21 20
22 21
26 31
25 31
31 28
28 30
30 25
22 32
