ply
format ascii 1.0
comment Created in Blender version 4.3.2
element vertex 83
property float x
property float y
property float z
property uchar red
property uchar green
property uchar blue
property uchar alpha
element edge 117
property int vertex1
property int vertex2
end_header
0.71928287 0 0 0 254 254 255
0.55622834 -0.023176182 0.018540945 0 254 0 255
0.55622834 -0.023176182 -0.018540945 0 254 0 255
0.112577416 -0.04271367 0.03399173 0 0 0 255
-0.17453106 -0.046440758 0.03535875 0 0 0 255
0.21631102 -0.05782014 -0.03399173 0 254 0 255
0.53755736 0 0.06952854 0 254 254 255
0.3307969 0 0.08961456 0 254 254 255
0.24688871 -0.034072626 0.07613148 0 254 0 255
0.15943831 -0.72063106 0.018540945 254 0 0 255
-0.1236063 -0.120883316 0.018540945 0 0 254 255
-0.0464669 -0.531258 0.018496498 254 0 0 255
0.1236063 -0.120883316 0.018540945 0 0 254 255
-0.18179072 -0.60464466 0.018540945 254 0 0 255
0.021011874 -0.095453046 -0.07080242 0 0 254 255
0.35528746 -0.72063106 0.018540945 254 254 254 255
-0.10815551 -0.34469223 0.0360215 254 0 0 255
-0.10815551 -0.36217278 0.043262206 254 0 0 255
-0.10815551 -0.37965333 0.0360215 254 0 0 255
-0.10815551 -0.38689402 0.018540945 254 0 0 255
-0.10815551 -0.37965333 0.0010603876 0 0 0 255
-0.10815551 -0.36217278 -0.006180315 254 0 0 255
-0.10815551 -0.34469223 0.0010603876 254 0 0 255
-0.10815551 -0.3374515 0.018540945 254 0 0 255
0.14915262 -0.4979093 -0.07080242 254 0 0 255
-0.039597746 -0.39722428 -0.07084686 254 0 0 255
-0.28507155 -0.5382999 -0.07080242 254 0 0 255
0.1236063 -0.095453046 -0.07080242 0 0 254 255
-0.1236063 -0.095453046 -0.07080242 0 0 254 255
-0.21595298 -0.06205415 -0.030901575 0 0 0 255
0.03143776 -0.120883316 0.018540945 0 0 254 255
0.28557292 -0.4979093 -0.07080242 254 254 254 255
-0.10815551 -0.25639233 -0.053321857 254 0 0 255
-0.10815551 -0.27387288 -0.046081156 254 0 0 255
-0.10815551 -0.29135346 -0.053321857 254 0 0 255
-0.10815551 -0.29859418 -0.07080242 254 0 0 255
-0.10815551 -0.29135346 -0.08828297 254 0 0 255
-0.10815551 -0.27387288 -0.09552367 0 0 0 255
-0.10815551 -0.25639233 -0.08828297 0 0 0 255
-0.10815551 -0.24729638 -0.07080242 254 0 0 255
-0.20086023 0 0.030901575 0 0 254 255
-0.34047338 0 -0.030901575 0 254 254 255
0.55622834 0 0.018540945 0 254 254 255
0.55622834 0 -0.018540945 0 0 0 0
0.09549991 0 0.03399173 0 0 254 255
0.21631102 0 -0.03399173 0 254 254 255
0.55622834 0.023176182 0.018540945 0 254 0 255
0.55622834 0.023176182 -0.018540945 0 254 0 255
0.112577416 0.04271367 0.03399173 0 0 0 255
-0.17453106 0.046440758 0.03535875 0 0 0 255
0.21631102 0.05782014 -0.03399173 0 254 0 255
0.24688871 0.034072626 0.07613148 0 254 0 255
0.15943831 0.72063106 0.018540945 254 0 0 255
-0.1236063 0.120883316 0.018540945 0 0 254 255
-0.0464669 0.531258 0.018496498 254 0 0 255
0.1236063 0.120883316 0.018540945 0 0 254 255
-0.18179072 0.60464466 0.018540945 254 0 0 255
0.021011874 0.095453046 -0.07080242 0 0 254 255
0.35528746 0.72063106 0.018540945 254 254 254 255
-0.10815551 0.34469223 0.0360215 254 0 0 255
-0.10815551 0.36217278 0.043262206 254 0 0 255
-0.10815551 0.37965333 0.0360215 254 0 0 255
-0.10815551 0.38689402 0.018540945 254 0 0 255
-0.10815551 0.37965333 0.0010603876 0 0 0 255
-0.10815551 0.36217278 -0.006180315 254 0 0 255
-0.10815551 0.34469223 0.0010603876 254 0 0 255
-0.10815551 0.3374515 0.018540945 254 0 0 255
0.14915262 0.4979093 -0.07080242 254 0 0 255
-0.039597746 0.39722428 -0.07084686 254 0 0 255
-0.28507155 0.5382999 -0.07080242 254 0 0 255
0.1236063 0.095453046 -0.07080242 0 0 254 255
-0.1236063 0.095453046 -0.07080242 0 0 254 255
-0.21595298 0.06205415 -0.030901575 0 0 0 255
0.03143776 0.120883316 0.018540945 0 0 254 255
0.28557292 0.4979093 -0.07080242 254 254 254 255
-0.10815551 0.25639233 -0.053321857 254 0 0 255
-0.10815551 0.27387288 -0.046081156 254 0 0 255
-0.10815551 0.29135346 -0.053321857 254 0 0 255
-0.10815551 0.29859418 -0.07080242 254 0 0 255
-0.10815551 0.29135346 -0.08828297 254 0 0 255
-0.10815551 0.27387288 -0.09552367 0 0 0 255
-0.10815551 0.25639233 -0.08828297 0 0 0 255
-0.10815551 0.24729638 -0.07080242 254 0 0 255
42 1
3 4
6 7
16 17
19 20
22 23
33 34
37 38
0 2
0 1
1 2
2 5
1 3
44 3
3 5
5 29
40 4
4 29
0 6
7 8
8 3
12 9
9 11
11 13
13 10
30 10
14 25
11 30
5 12
29 10
9 15
23 16
17 18
18 19
20 21
21 22
10 23
11 23
27 24
24 25
25 26
26 28
14 28
12 30
27 14
40 41
5 27
29 28
24 31
39 32
32 33
34 35
35 36
36 37
38 39
28 39
25 39
29 41
2 43
5 45
42 46
48 49
59 60
62 63
65 66
76 77
80 81
0 47
0 46
46 47
47 50
46 48
44 48
48 50
50 72
40 49
49 72
7 51
51 48
55 52
52 54
54 56
56 53
73 53
57 68
54 73
50 55
72 53
52 58
66 59
60 61
61 62
63 64
64 65
53 66
54 66
70 67
67 68
68 69
69 71
57 71
55 73
70 57
50 70
72 71
67 74
82 75
75 76
77 78
78 79
79 80
81 82
71 82
68 82
72 41
47 43
50 45
