ply
format ascii 1.0
comment 3D Constellation Line List Data
element vertex 757
property float x
property float y
property float z
element edge 743
property int vertex1
property int vertex2
end_header
0.633856 0.673396 0.380480
0.775554 0.582415 0.243534
0.845806 0.512957 0.146583
0.873269 0.486189 0.031974
0.889194 0.397430 0.226681
0.892260 0.410993 0.186967
0.859658 0.489562 0.146001
0.821021 0.555125 0.133273
0.724844 0.685413 -0.069358
0.715713 0.673348 -0.185358
0.712668 0.698839 -0.061071
0.685585 0.724872 -0.067331
0.758742 0.622505 0.191828
0.736069 0.657098 0.162556
0.647926 0.734225 0.202744
0.601441 0.750436 0.274070
0.688083 0.724416 -0.041983
-0.640606 -0.587097 0.494915
-0.787221 -0.516052 0.337600
-0.766988 -0.603734 0.217334
-0.141305 -0.981776 -0.127077
-0.082573 -0.980600 -0.177779
-0.071191 -0.976362 -0.204082
-0.071007 -0.981283 -0.179003
0.658925 -0.164975 -0.733894
0.675692 -0.156147 -0.720458
0.793708 -0.097083 -0.600501
0.878353 -0.005583 -0.477979
0.909072 -0.024211 -0.415935
0.921917 -0.000349 -0.387387
0.932568 -0.002051 -0.360987
0.948723 -0.131903 -0.287275
0.970579 -0.159580 -0.180308
0.909904 -0.361175 -0.204026
0.854076 -0.239715 -0.461618
0.892088 -0.135427 -0.431089
0.915533 0.024038 -0.401523
0.926860 -0.343670 -0.151072
0.949029 -0.305969 -0.075675
0.439561 0.184180 -0.879127
0.459221 0.154164 -0.874843
0.479175 0.111587 -0.870597
0.542037 -0.014337 -0.840232
0.471219 0.017552 -0.881841
0.363926 0.054337 -0.929842
0.273344 0.239610 -0.931595
0.284022 -0.085114 -0.955033
-0.083291 -0.832706 -0.547415
-0.061582 -0.871931 -0.485741
-0.155147 -0.857539 -0.490465
-0.148017 -0.828941 -0.539396
-0.156233 -0.800317 -0.578864
-0.078980 -0.764653 -0.639585
-0.085366 -0.824422 -0.559501
0.655432 0.458037 0.600509
0.779681 0.398147 0.483298
0.820248 0.355237 0.448329
0.830380 0.330414 0.448659
0.001455 0.706457 0.707754
0.130501 0.719316 0.682316
0.173912 0.659142 0.731632
0.227242 0.547068 0.805653
0.128659 0.478807 0.868442
0.000969 0.604774 0.796396
0.001204 0.811928 0.583757
0.180739 0.692437 0.698473
0.187224 0.657057 0.730221
-0.851359 0.299988 -0.430343
-0.832543 0.315611 -0.455260
-0.783787 0.328577 -0.526987
-0.680263 0.505603 -0.530667
-0.618177 0.619893 -0.483312
-0.533972 0.647995 -0.543118
-0.549613 0.549239 -0.629494
-0.669485 0.455144 -0.587055
-0.741020 0.237318 -0.628148
-0.574328 0.720410 -0.388790
-0.516618 0.785726 -0.340206
-0.497837 0.786404 -0.365687
0.268433 -0.706535 0.654791
0.252997 -0.667362 0.700443
0.265893 -0.603824 0.751463
0.195591 -0.580461 0.790448
0.159785 0.806466 0.569281
0.120556 0.869859 0.478344
0.113882 0.915962 0.384766
0.171556 0.947391 0.270221
0.223322 0.910149 0.348935
0.306542 0.865504 0.396150
-0.029008 0.935566 0.351958
-0.058385 0.974281 0.217640
-0.687435 0.205482 0.696571
-0.625541 0.311577 0.715275
-0.608349 0.365990 0.704247
-0.582759 0.481220 0.654843
-0.553861 0.159631 0.817164
-0.761302 0.619983 -0.189841
-0.742481 0.660755 -0.110111
-0.094067 -0.308285 0.946632
-0.187456 -0.287630 0.939217
-0.248387 -0.404077 0.880355
-0.263359 -0.444529 0.856175
-0.235057 -0.468466 0.851638
-0.221359 -0.484384 0.846388
-0.076609 -0.500958 0.862074
-0.312850 -0.489430 0.813992
-0.231839 -0.293276 0.927491
-0.264464 -0.269480 0.925980
-0.229100 -0.208571 0.950795
-0.418111 0.091067 0.903820
-0.367291 0.144171 0.918865
0.551726 -0.216579 -0.805414
0.558084 -0.255132 -0.789589
0.575812 -0.305923 -0.758190
0.599489 -0.426899 -0.677030
0.607594 -0.452732 -0.652582
0.725171 -0.381253 -0.573388
0.803469 -0.277772 -0.526573
0.784975 -0.286730 -0.549182
0.739212 -0.289608 -0.608024
0.692660 -0.296257 -0.657613
-0.119573 -0.684495 0.719145
-0.063223 -0.795428 0.602741
-0.258825 -0.937993 0.230605
-0.305354 -0.939919 0.152682
-0.407982 -0.901791 0.142560
-0.439795 -0.880356 0.177634
-0.432166 -0.877417 0.208260
-0.387182 -0.859631 0.333353
-0.295572 -0.861713 0.412417
-0.293671 -0.798451 0.525579
-0.362956 -0.735348 0.572300
-0.380363 -0.816226 0.434854
-0.450386 -0.886398 0.107006
-0.458492 -0.882515 0.104658
-0.484639 -0.868784 0.101687
-0.502499 -0.856942 0.114649
-0.495608 -0.855845 0.147996
0.389424 0.896255 0.212311
0.462042 0.868071 0.181575
0.474231 0.872212 0.119798
0.542804 0.834245 0.096950
0.512384 0.858511 0.020530
-0.572444 -0.814024 0.098347
-0.632657 -0.774088 -0.023083
-0.634918 -0.768625 -0.078069
-0.645843 -0.754250 -0.118293
-0.539643 -0.803508 -0.251317
-0.593921 -0.734777 -0.327658
-0.654817 -0.675252 -0.339484
-0.663146 -0.665070 -0.343393
-0.685294 -0.592997 -0.422760
-0.577099 -0.671175 -0.465275
-0.526537 -0.670481 -0.522699
-0.752586 -0.597797 -0.276140
-0.373855 -0.873239 -0.312549
-0.423938 -0.869262 -0.254284
-0.609792 -0.791954 -0.031029
-0.504556 -0.861116 0.062470
0.275770 0.890960 -0.360752
0.311629 0.881623 -0.354440
0.350863 0.887700 -0.298134
0.429088 0.855183 -0.290767
0.487938 0.839085 -0.240528
0.468303 0.849905 -0.241567
0.483163 0.851866 -0.202183
0.384692 0.914962 -0.121883
0.213316 0.976793 -0.019275
0.262845 0.942995 -0.204141
0.755501 0.056445 0.652711
0.773789 0.097465 0.625900
0.789532 0.147121 0.595815
0.740319 0.175609 0.648914
0.699447 0.154838 0.697710
0.698256 0.071318 0.712287
0.767480 0.005733 0.641047
0.819676 -0.051946 0.570467
0.869707 -0.179403 0.459808
0.864121 -0.274589 0.421777
0.933977 -0.308795 0.179812
0.984616 -0.153398 0.083667
0.940499 -0.176781 0.290189
0.924038 -0.142340 0.354814
-0.128615 -0.974054 0.186219
-0.184240 -0.980298 0.071214
-0.156847 -0.986198 0.053035
-0.184863 -0.982652 -0.014831
-0.204123 -0.978945 0.000333
-0.337255 -0.855375 -0.393183
-0.321053 -0.906124 -0.275435
-0.322174 -0.860038 -0.395650
-0.080396 -0.551011 0.830616
0.031996 -0.584509 0.810756
0.073457 -0.560265 0.825050
0.102029 -0.580284 0.807998
0.002731 -0.679635 0.733546
-0.909444 0.301195 -0.286694
-0.840831 0.467594 -0.272689
-0.874662 0.473603 -0.103283
0.202114 -0.603311 -0.771470
0.228032 -0.602698 -0.764693
0.235535 -0.614347 -0.753061
0.232657 -0.633932 -0.737565
0.223441 -0.649404 -0.726876
0.201776 -0.670363 -0.714073
0.155881 -0.687520 -0.709237
0.107717 -0.673174 -0.731597
-0.511133 0.520400 -0.684052
-0.538432 0.486422 -0.688102
-0.529171 0.449548 -0.719642
-0.505398 0.443002 -0.740488
-0.483981 0.439444 -0.756737
-0.454092 0.452091 -0.767733
-0.428924 0.497748 -0.753838
-0.907685 -0.418325 -0.033337
-0.922177 -0.384614 -0.040766
-0.951230 -0.301403 -0.065707
-0.950615 -0.284273 -0.124579
-0.907465 -0.397097 -0.137189
-0.980305 -0.170247 0.100086
-0.970407 -0.188398 0.151051
-0.951743 -0.255083 0.170642
-0.916839 -0.313973 0.246634
-0.901260 -0.387931 0.192975
-0.934691 -0.321935 0.150697
-0.941583 -0.303767 0.145420
-0.947050 -0.314832 0.063057
-0.955388 -0.294888 0.016610
-0.493795 -0.863297 -0.104332
-0.517657 -0.854902 -0.034258
-0.449405 -0.891790 -0.052392
-0.537968 -0.839745 -0.073611
0.644463 0.503426 -0.575526
0.550101 0.558763 -0.620623
0.443786 0.646213 -0.620856
0.311961 0.708719 -0.632770
0.236289 0.785099 -0.572528
0.196968 0.802490 -0.563218
0.455650 0.710558 -0.536182
0.397683 0.574768 -0.715185
0.340582 0.468850 -0.814974
0.607800 0.196003 -0.769520
0.614082 0.251987 -0.747934
0.616994 0.274162 -0.737668
0.638585 0.277719 -0.717692
0.631760 0.260076 -0.730232
0.272908 -0.782463 0.559708
0.209989 -0.819602 0.533064
0.053040 -0.886929 0.458851
0.027284 -0.911658 0.410043
0.011649 -0.891715 0.452447
0.126640 -0.843135 0.522576
-0.015429 0.837457 -0.546285
-0.009221 0.782488 -0.622598
-0.078673 0.791238 -0.606426
-0.068939 0.820880 -0.566924
0.118326 0.924955 -0.361190
0.028942 0.947422 -0.318676
-0.091142 0.911509 -0.401055
-0.194005 0.878935 -0.435700
-0.257031 0.853235 -0.453789
-0.322815 0.856862 -0.401967
-0.370316 0.901651 -0.223365
-0.341811 0.938422 -0.050295
-0.350223 0.935636 0.043927
0.027233 0.954931 -0.295576
0.153504 0.941282 -0.300709
0.751044 0.091463 -0.653886
0.738928 0.173768 -0.650992
0.726771 0.175910 -0.663973
0.224702 -0.088658 0.970386
0.318848 -0.056775 0.946104
0.356456 -0.058479 0.932480
0.451280 -0.119056 0.884405
0.493389 -0.233590 0.837856
0.539165 -0.209646 0.815690
0.553770 -0.169580 0.815218
0.590429 -0.164330 0.790183
0.709401 -0.154678 0.687623
0.732399 -0.239528 0.637352
0.712403 -0.318506 0.625328
0.641050 -0.400741 0.654570
0.598493 -0.370686 0.710210
0.553617 -0.368658 0.746725
0.504278 -0.394739 0.768040
0.310157 -0.508475 0.803278
0.337012 -0.559436 0.757268
0.358101 -0.556271 0.749884
0.435198 -0.590610 0.679546
0.445501 -0.646450 0.619380
0.469747 -0.682889 0.559464
0.543326 -0.646852 0.535144
0.586626 -0.640852 0.495155
0.539241 -0.739676 0.402616
0.515175 -0.782741 0.349159
0.543217 -0.783790 0.300980
0.492722 -0.840914 0.223804
0.585091 -0.484620 0.650240
0.624722 -0.535914 0.567907
0.746569 -0.489334 0.450763
-0.059929 0.382793 0.921888
-0.092394 0.382903 0.919157
-0.172483 0.424691 0.888756
-0.263866 0.503702 0.822593
-0.340599 0.528265 0.777772
-0.391514 0.469875 0.791160
-0.362465 0.452368 0.814851
-0.317622 0.374320 0.871206
-0.258490 0.351356 0.899851
-0.157142 0.282330 0.946359
-0.191378 0.223175 0.955807
-0.320360 0.284691 0.903505
0.585211 -0.796045 -0.154401
0.594888 -0.780615 -0.191700
0.644929 -0.729979 -0.226269
0.667093 -0.691503 -0.277147
0.602934 -0.730889 -0.319799
0.669319 -0.688299 -0.279743
0.674195 -0.660614 -0.330229
0.677877 -0.636663 -0.367618
0.677538 -0.606889 -0.415485
-0.392036 0.328093 -0.859455
-0.355255 0.366332 -0.859997
-0.286804 0.524026 -0.801960
-0.256832 0.628266 -0.734384
-0.270176 0.674779 -0.686788
-0.292616 0.723129 -0.625668
-0.330243 0.706303 -0.626160
-0.389154 0.674966 -0.626881
-0.220975 0.513937 -0.828878
-0.156034 0.599152 -0.785283
-0.013013 0.605301 -0.795890
-0.125785 0.603847 -0.787113
-0.176918 0.420073 -0.890078
-0.052273 0.465162 -0.883681
-0.008509 0.488589 -0.872472
0.028844 0.481180 -0.876147
-0.190430 0.248526 -0.949722
0.330045 -0.672940 0.661983
0.479596 -0.774948 0.411636
0.470276 -0.793811 0.385623
0.443225 -0.814621 0.374091
0.350689 -0.863728 0.361926
0.310803 -0.899339 0.307557
-0.660980 0.111795 0.742029
-0.667055 0.101713 0.738032
-0.652352 0.059284 0.755594
-0.637538 0.058285 0.768211
-0.631776 0.099386 0.768753
-0.689026 0.103584 0.717296
-0.749397 0.040381 0.660889
-0.818629 -0.019944 0.573977
-0.777932 -0.150547 0.610047
-0.818568 -0.256232 0.514093
-0.867626 -0.213953 0.448832
-0.877902 -0.289638 0.381311
-0.915404 -0.278884 0.290274
-0.843476 -0.527810 0.099824
-0.829536 -0.557862 0.025675
-0.865359 -0.393485 -0.310361
-0.761084 -0.449045 -0.468092
-0.650465 -0.468861 -0.597549
0.219235 -0.975358 0.024738
0.148693 -0.962403 0.227312
0.284080 -0.928919 0.237505
0.296497 -0.931434 0.211000
0.333477 -0.924860 0.182830
0.413574 -0.879399 0.235827
0.430443 -0.734814 -0.524183
0.404701 -0.787161 -0.465397
0.361472 -0.852222 -0.378226
0.494197 -0.819078 -0.291343
0.455981 -0.803331 -0.383067
0.559074 0.790465 -0.250202
0.591730 0.769204 -0.241205
0.621171 0.739712 -0.258790
0.624736 0.725814 -0.287923
0.674917 0.683572 -0.277879
0.673351 0.698119 -0.243369
0.594180 0.760138 -0.262944
0.688232 0.638968 -0.343594
0.710634 0.612199 -0.346716
-0.864502 0.207352 0.457866
-0.844116 0.288409 0.451983
-0.852457 0.339419 0.397632
-0.917814 0.350595 0.186279
-0.966729 0.251598 0.046183
-0.944807 0.266054 0.191193
-0.825973 0.397425 0.399778
-0.763758 0.438481 0.473718
-0.762795 0.403135 0.505595
-0.720142 0.577070 0.385210
-0.761972 0.556239 0.331657
-0.792172 0.562298 0.237243
-0.737809 0.597726 0.313625
-0.647505 0.593385 0.478154
-0.025947 -0.257728 0.965869
0.015209 -0.244761 0.969464
0.054993 -0.255817 0.965160
0.113009 -0.306066 0.945279
0.195831 -0.279083 0.940087
0.217989 -0.380602 0.898678
0.129147 -0.354444 0.926116
0.062607 -0.381851 0.922101
0.035372 -0.356397 0.933665
0.197507 -0.223953 0.954377
0.170852 -0.227957 0.958564
-0.627922 -0.427074 -0.650632
-0.706074 -0.276339 -0.651994
-0.644004 -0.163032 -0.747449
-0.569927 -0.255269 -0.781038
-0.515139 -0.471552 -0.715731
-0.502001 -0.496638 -0.708058
-0.444445 -0.553787 -0.704122
-0.473887 -0.565138 -0.675315
-0.513413 -0.591470 -0.621747
-0.484215 -0.651403 -0.584131
-0.519311 -0.683707 -0.512700
-0.514952 -0.735958 -0.439535
-0.410477 -0.789075 -0.457021
-0.434426 -0.741687 -0.511052
-0.450573 -0.703266 -0.549910
-0.444763 -0.658253 -0.607362
-0.391503 -0.621103 -0.678938
-0.380244 -0.599056 -0.704661
-0.044031 0.857266 0.512987
-0.129510 0.851935 0.507379
-0.241316 0.757126 0.607064
-0.425557 0.684396 0.592034
-0.528741 0.666310 0.525798
-0.610771 0.599060 0.517770
-0.634565 0.564860 0.527504
0.153787 0.610216 -0.777166
0.148246 0.637595 -0.755973
0.125096 0.626382 -0.769413
0.188398 0.600401 -0.777190
0.214075 0.540088 -0.813927
0.181056 0.549937 -0.815345
-0.011748 -0.964801 0.262718
0.028898 -0.971718 0.234368
0.072519 -0.965640 0.249560
0.079245 -0.947290 0.310421
0.561453 -0.556001 -0.612890
0.482557 -0.694514 -0.533656
0.581421 -0.653546 -0.484590
0.643496 -0.532470 -0.549899
0.601328 -0.533730 -0.594590
-0.421617 -0.165927 0.891463
-0.531394 -0.052054 0.845524
-0.308443 -0.008601 0.951204
-0.124468 -0.122443 0.984640
-0.064386 -0.109297 0.991922
-0.207134 0.042088 0.977407
-0.103189 0.080075 0.991433
-0.141906 0.127636 0.981617
-0.175201 0.171857 0.969417
-0.394305 -0.918645 0.024796
-0.374140 -0.926927 -0.028741
-0.351480 -0.934426 -0.057531
-0.365280 -0.927889 -0.074782
-0.304884 -0.948594 -0.084941
-0.303735 -0.951771 -0.043318
-0.335053 -0.709241 -0.620255
-0.265909 -0.737923 -0.620292
-0.271179 -0.767786 -0.580488
-0.318549 -0.757334 -0.570063
-0.088394 -0.993899 -0.065959
0.142121 -0.988708 -0.047513
0.179636 -0.975879 -0.124064
-0.004187 -0.169755 -0.985477
-0.052744 0.047234 -0.997490
-0.071824 0.079630 -0.994234
-0.106539 0.217462 -0.970237
-0.265044 0.162895 -0.950377
-0.378770 0.034619 -0.924843
-0.443923 -0.064433 -0.893745
-0.427805 -0.081808 -0.900161
-0.347645 -0.183387 -0.919517
-0.206789 -0.271019 -0.940100
-0.362303 -0.285901 -0.887129
-0.374349 -0.316581 -0.871573
-0.381730 -0.342632 -0.858420
-0.367345 -0.397904 -0.840672
-0.149547 -0.422610 -0.893888
-0.123107 -0.497988 -0.858401
-0.031942 0.254914 0.966436
0.022987 0.346546 0.937751
-0.016056 0.344291 0.938726
-0.050481 0.245456 0.968092
-0.010251 0.167583 0.985805
0.020891 0.128918 0.991435
0.150628 0.110596 0.982385
0.275879 0.176240 0.944897
0.264813 0.029910 0.963836
0.282706 0.042585 0.958261
0.294269 0.097671 0.950719
0.299150 0.121199 0.946478
0.294568 0.154714 0.943024
0.266491 0.233691 0.935078
0.230907 0.265625 0.936016
0.209703 0.268873 0.940070
0.195052 -0.142657 0.970363
0.154244 -0.041825 0.987147
0.121838 -0.005220 0.992536
0.106645 0.172517 0.979216
0.083809 -0.033898 0.995905
0.052639 -0.167966 0.984386
0.103579 -0.020976 0.994400
0.325588 -0.836144 -0.441425
0.265987 -0.914982 -0.303411
0.215083 -0.914833 -0.341788
0.105388 -0.884480 -0.454520
0.048286 -0.878766 -0.474803
0.016603 -0.896243 -0.443252
-0.026563 -0.904261 -0.426154
0.059455 -0.947925 -0.312896
0.147590 -0.955847 -0.254114
0.326706 -0.908990 -0.258843
0.742383 0.547245 -0.386511
0.815780 0.503340 -0.284873
0.855851 0.470747 -0.214283
0.963482 0.261913 0.055706
0.937098 0.262278 -0.230343
0.927935 0.210862 -0.307365
0.925076 0.187920 -0.330032
0.882226 0.107963 -0.458281
0.817202 0.171499 -0.550245
0.867147 0.416306 -0.273397
0.869907 0.399800 -0.288827
0.796122 0.428069 -0.427722
0.748789 0.432794 -0.502001
0.471751 0.534178 0.701502
0.443248 0.528195 0.724252
0.408745 0.584830 0.700643
0.389159 0.642924 0.659700
0.408576 0.676600 0.612600
0.378319 0.740659 0.555246
0.390682 0.745390 0.540150
0.404980 0.764485 0.501551
0.411647 0.803923 0.429248
0.412241 0.828016 0.380061
0.438470 0.796134 0.417030
0.439686 0.761689 0.475927
0.480049 0.705346 0.521574
0.514650 0.655474 0.552710
0.517260 0.637580 0.570906
0.538184 0.627152 0.563062
0.547276 0.638267 0.541391
0.534173 0.656492 0.532613
0.303035 0.769971 0.561529
0.293859 0.747906 0.595217
0.314168 0.739778 0.595002
0.492486 0.757319 0.428865
0.569827 0.773715 0.276880
0.734702 -0.673090 0.084631
0.657281 -0.727993 0.194957
0.674141 -0.686050 0.273623
0.603856 -0.755541 0.253998
0.544868 -0.821605 0.167584
0.697235 -0.716270 0.028646
-0.098179 -0.882467 0.460014
0.024705 -0.830661 0.556230
0.034847 -0.777876 0.627451
0.862678 0.416022 0.287599
0.823289 0.501354 0.266156
0.836003 0.458093 0.302078
0.888366 0.358933 0.286308
0.888532 0.264644 0.374799
0.884689 0.159152 0.438173
0.860522 0.048219 0.507125
0.878379 0.055604 0.474720
0.899509 0.095630 0.426308
0.918265 0.107024 0.381228
0.940415 0.131831 0.313434
0.953410 0.137273 0.268636
0.968971 0.131999 0.208979
0.992830 0.119501 -0.002982
0.991377 0.098040 -0.086949
0.984118 0.111105 -0.138447
0.980725 0.093783 -0.171414
0.980973 0.057256 -0.185509
0.989371 0.021913 -0.143750
0.996452 0.031062 -0.078218
0.996390 0.060819 -0.059231
0.968010 0.066622 -0.241905
0.837815 -0.454668 -0.302229
0.837332 -0.494279 -0.233587
0.810310 -0.537882 -0.232550
0.803716 -0.542815 -0.243706
0.782630 -0.535032 -0.318169
0.741257 -0.544471 -0.392543
0.697017 -0.545017 -0.465966
0.719108 -0.513516 -0.468173
-0.263434 -0.603173 0.752851
-0.355719 -0.475153 0.804794
-0.373080 -0.450937 0.810844
-0.416483 -0.420399 0.806106
-0.449681 -0.388804 0.804126
-0.481415 -0.411583 0.773847
-0.393332 -0.642829 0.657314
-0.408562 -0.437386 0.801106
-0.382917 -0.484120 0.786768
-0.524828 -0.577977 0.624898
-0.547928 -0.547365 0.632588
-0.599623 -0.464993 0.651332
0.205445 -0.886800 0.413978
0.222823 -0.859872 0.459315
0.241609 -0.877985 0.413241
0.237724 -0.904878 0.353104
0.402265 0.309248 -0.861713
0.428185 0.317872 -0.845940
0.466910 0.333677 -0.818935
0.407063 0.300306 -0.862621
0.061557 -0.598488 -0.798763
0.086880 -0.564745 -0.820679
0.079357 -0.497399 -0.863884
0.109955 -0.429277 -0.896455
0.056010 -0.359326 -0.931530
0.251822 -0.700399 -0.667853
0.271683 -0.650985 -0.708807
0.233945 -0.498187 -0.834913
0.176343 -0.453847 -0.873456
0.358928 -0.667421 -0.652472
0.407375 -0.577520 -0.707472
0.434077 -0.443063 -0.784393
0.371533 -0.420776 -0.827593
0.330799 -0.414830 -0.847637
0.292730 -0.426675 -0.855721
0.214097 -0.443020 -0.870572
0.021850 -0.506397 -0.862024
0.255014 -0.464385 -0.848124
0.258690 -0.370420 -0.892115
0.279772 -0.358752 -0.890519
0.314289 -0.324791 -0.892039
0.332081 -0.306480 -0.892072
0.335644 -0.274882 -0.900990
0.232518 -0.360106 -0.903471
0.215955 -0.386627 -0.896595
-0.452849 -0.440160 -0.775362
-0.460368 -0.384645 -0.800068
-0.450963 -0.338828 -0.825729
-0.376909 -0.431972 -0.819353
-0.344816 -0.445135 -0.826412
-0.316206 -0.472797 -0.822482
-0.247870 -0.563428 -0.788105
-0.230669 -0.616313 -0.752961
-0.208057 -0.673803 -0.709014
-0.150987 -0.685046 -0.712682
-0.072263 -0.681970 -0.727801
-0.041400 -0.644484 -0.763496
-0.059299 -0.629727 -0.774550
-0.091637 -0.603261 -0.792262
0.843237 -0.490256 0.220456
0.880848 -0.471478 -0.042597
0.829521 -0.537771 -0.150660
0.784472 -0.613159 -0.092950
0.151436 -0.143391 -0.978011
0.203685 -0.082772 -0.975531
0.181125 -0.157339 -0.970793
0.122971 -0.251492 -0.960016
-0.531406 0.265923 -0.804296
-0.534873 0.336609 -0.774987
-0.514990 0.311366 -0.798646
-0.494283 0.269955 -0.826322
-0.582018 0.182903 -0.792339
-0.554716 0.111913 -0.824479
-0.532663 0.078071 -0.842719
-0.094135 -0.265533 -0.959495
0.013310 -0.142289 -0.989736
0.092730 -0.050572 -0.994406
0.242198 0.073301 -0.967454
-0.882802 -0.006486 0.469701
-0.840736 -0.140988 0.522767
-0.921952 -0.047788 0.384346
-0.924308 -0.011118 0.381486
0.090833 0.360689 0.928253
0.343903 0.284171 0.894974
0.373276 0.273471 0.886498
0.407783 0.269384 0.872437
0.391865 0.301413 0.869248
0.366700 0.328544 0.870397
0.485654 0.216274 0.846974
0.609612 0.169052 0.774464
0.485362 0.104343 0.868065
0.618795 0.156933 0.769717
0.584684 0.007011 0.811231
0.034050 -0.718787 -0.694396
0.081615 -0.718958 -0.690245
0.082197 -0.755517 -0.649952
0.765944 0.493620 0.411908
0.691848 0.573395 0.438821
0.685862 0.556980 0.468365
-0.109614 -0.933754 -0.340718
-0.231799 -0.894394 -0.382529
-0.235030 -0.931561 -0.277407
0.448213 -0.868282 -0.212584
0.517371 -0.850221 -0.097222
0.450341 -0.890675 0.062379
0.422970 -0.905382 0.037138
0.413468 -0.910519 -0.000151
0.389028 -0.906060 -0.166471
-0.542930 0.838980 -0.036599
-0.459109 0.880899 0.115048
-0.535916 0.832751 0.138994
-0.591872 0.805875 0.015936
-0.544291 0.828645 -0.130746
-0.536542 0.818405 -0.205759
-0.581459 0.758286 -0.294802
-0.670743 0.740563 0.040876
-0.824062 0.546019 0.150951
-0.838213 0.522957 0.154646
-0.696134 0.700891 0.155402
-0.681971 0.662614 0.309610
-0.659780 0.680905 0.317898
-0.361242 0.891496 0.273383
-0.298196 0.872225 0.387690
-0.435079 0.857515 0.274543
-0.497844 0.809676 0.310767
-0.496618 0.784531 0.371325
-0.471126 0.743633 0.474395
-0.488377 0.733214 0.473165
-0.118179 0.977396 -0.175304
-0.106413 0.969254 -0.221864
-0.199643 0.950157 -0.239466
-0.200728 0.962006 -0.185074
-0.043972 0.990358 -0.131364
-0.007200 0.998226 -0.059105
0.010127 0.999918 0.007899
-0.442648 -0.819259 0.364523
-0.498054 -0.814802 0.296716
-0.617579 -0.759502 0.204336
-0.664850 -0.670710 0.328820
-0.604981 -0.649007 0.461289
-0.531088 -0.687501 0.495265
-0.991623 0.113713 0.061262
-0.998702 0.030795 0.040570
-0.996163 -0.011638 -0.086741
-0.983209 -0.025294 -0.180722
-0.949329 -0.096523 -0.299095
-0.914081 -0.193572 -0.356352
-0.824460 -0.104537 -0.556181
-0.753703 -0.098594 -0.649778
-0.945854 0.190110 -0.263095
-0.969007 0.059263 -0.239821
-0.915800 -0.010398 -0.401499
-0.862098 0.026953 -0.506025
-0.747828 0.033031 -0.663071
-0.286140 -0.916336 0.280095
-0.240263 -0.914515 0.325479
-0.193113 -0.931165 0.309256
-0.123470 -0.926904 0.354407
-0.098642 -0.942635 0.318918
0.303976 0.364721 -0.880101
0.343021 0.417310 -0.841539
0.433750 0.408005 -0.803363
0.446155 0.465670 -0.764262
0.493847 0.466606 -0.733754
0 1
1 2
2 3
4 5
5 6
6 2
2 7
7 8
8 9
8 10
10 11
1 12
12 13
13 14
14 15
10 16
17 18
18 19
20 21
21 22
22 23
24 25
25 26
26 27
27 28
28 29
29 30
30 31
31 32
32 33
26 34
27 35
29 36
37 32
32 38
39 40
40 41
41 42
42 43
43 44
44 45
45 40
40 44
44 46
47 48
48 49
49 50
50 51
51 52
52 53
54 55
55 56
56 57
58 59
59 60
60 61
61 62
62 63
63 58
58 64
64 59
59 65
65 66
67 68
68 69
69 70
70 71
71 72
72 73
73 74
74 69
69 75
71 76
76 77
77 78
78 76
79 80
80 81
81 82
83 84
84 85
85 86
86 87
87 88
85 89
89 90
91 92
92 93
93 94
92 95
96 97
98 99
99 100
100 101
101 102
102 103
103 104
105 101
99 106
106 107
107 108
108 106
109 110
111 112
112 113
113 114
114 115
115 116
116 117
117 118
118 119
119 120
120 111
121 122
122 123
123 124
124 125
125 126
126 127
127 128
128 129
129 130
130 131
131 132
132 128
125 133
133 134
134 135
135 136
136 137
137 126
138 139
139 140
140 141
141 142
143 144
144 145
145 146
146 147
147 148
148 149
149 150
150 151
151 152
152 153
150 154
155 147
147 156
145 157
157 158
159 160
160 161
161 162
162 163
163 164
164 165
165 166
166 167
167 168
168 161
168 166
169 170
170 171
171 172
172 173
173 174
174 169
169 175
175 176
176 177
177 178
178 179
179 180
180 181
181 182
182 177
183 184
184 185
185 186
186 187
187 184
188 189
189 190
191 192
192 193
193 194
192 195
196 197
197 198
199 200
200 201
201 202
202 203
203 204
204 205
205 206
207 208
208 209
209 210
210 211
211 212
212 213
214 215
215 216
216 217
217 218
218 215
219 220
220 221
221 222
222 223
223 224
224 225
225 226
226 227
221 225
228 229
230 231
232 233
233 234
234 235
235 236
236 237
238 234
234 239
239 240
241 242
242 243
243 244
244 245
245 242
246 247
247 248
248 249
249 250
250 248
248 251
251 247
252 253
253 254
254 255
255 252
252 256
256 257
257 258
258 259
259 260
260 261
261 262
262 263
263 264
257 265
256 266
267 268
268 269
270 271
271 272
272 273
273 274
274 275
275 276
276 277
277 278
278 279
279 280
280 281
281 282
282 283
283 284
284 285
285 286
286 287
287 288
288 289
289 290
290 291
291 292
292 293
293 294
294 295
295 296
297 298
298 299
300 301
301 302
302 303
303 304
304 305
305 306
306 307
307 308
308 309
309 310
307 311
312 313
313 314
314 315
315 316
316 314
317 318
318 319
319 320
321 322
322 323
323 324
324 325
325 326
326 327
327 328
323 329
324 330
331 332
332 330
330 329
329 333
333 334
334 335
335 336
337 322
338 339
339 340
340 341
341 342
342 343
344 345
345 346
346 347
347 348
348 344
344 349
349 350
350 351
351 352
352 353
353 354
354 355
355 356
356 357
357 358
358 359
359 360
360 361
362 363
363 364
364 365
365 366
366 367
368 369
369 370
370 371
371 372
372 368
373 374
374 375
375 376
376 377
377 378
378 375
375 379
379 373
377 380
380 381
382 383
383 384
384 385
385 386
386 387
387 382
384 388
388 389
389 390
391 392
392 393
393 394
394 391
391 395
396 397
397 398
398 399
399 400
400 401
401 402
402 403
403 404
405 400
400 406
407 408
408 409
409 410
410 411
411 412
408 410
413 414
414 415
415 416
416 417
417 418
418 419
419 420
420 421
421 422
422 423
423 424
416 422
425 426
426 427
427 428
428 429
429 430
430 431
432 433
433 434
434 432
432 435
435 436
436 437
437 432
438 439
439 440
440 441
442 443
443 444
444 445
445 446
446 442
447 448
448 449
449 450
450 451
449 452
452 453
453 454
454 455
456 457
457 458
458 459
459 460
460 461
461 458
462 463
463 464
464 465
465 462
466 467
467 468
468 466
469 470
470 471
471 472
472 473
473 474
474 475
475 476
476 477
477 478
473 477
477 479
479 480
480 481
481 482
471 478
478 483
483 484
485 486
486 487
487 488
488 489
489 490
490 491
491 492
493 494
494 495
495 496
496 497
497 492
492 498
498 499
499 500
501 502
502 503
503 491
491 504
504 490
490 505
505 506
505 507
507 503
508 509
509 510
510 511
511 512
512 513
513 514
514 515
515 516
516 509
509 517
518 519
519 520
520 3
3 521
521 522
522 523
523 524
524 525
525 526
522 520
520 527
527 528
528 529
529 530
531 532
532 533
533 534
534 535
535 536
536 537
537 538
538 539
539 540
540 541
541 542
542 543
543 544
544 545
545 546
546 547
547 548
548 544
549 550
550 551
551 536
542 552
552 553
554 555
555 556
556 557
557 558
558 555
555 559
559 554
560 561
561 562
563 564
564 565
565 563
563 566
566 567
567 568
568 569
569 570
570 571
571 572
572 573
573 574
574 575
575 576
576 577
577 578
578 579
579 580
580 581
581 582
582 583
583 577
580 584
585 586
586 587
587 588
588 589
589 590
590 591
591 592
592 590
590 585
121 593
593 594
594 595
595 596
596 597
597 598
598 599
599 131
596 600
600 601
601 594
599 602
602 603
603 604
605 606
606 607
607 608
608 605
609 610
610 611
612 610
613 614
614 615
615 616
616 617
618 619
619 620
620 621
621 616
622 623
623 624
624 625
625 626
626 627
627 628
628 621
621 615
615 629
629 614
614 620
620 630
630 628
628 631
631 632
632 633
633 634
634 635
631 636
636 637
637 628
638 639
639 640
639 641
641 642
642 643
643 644
644 645
645 646
646 647
647 648
648 649
649 650
650 651
652 653
653 654
654 655
656 657
657 658
658 659
659 656
660 661
661 662
662 663
663 660
660 664
664 665
665 666
666 475
478 667
667 469
469 668
668 669
669 670
671 672
672 673
673 674
675 676
676 677
677 678
678 679
679 680
680 62
678 681
681 682
682 683
682 684
684 685
686 687
687 688
689 690
690 691
691 689
692 693
693 694
694 692
695 696
696 697
697 698
698 699
699 700
700 695
701 702
702 703
703 704
704 701
701 705
705 706
706 707
704 708
708 709
709 710
708 711
711 712
711 713
702 714
714 715
715 716
716 703
703 717
717 718
718 719
720 718
721 722
722 723
723 724
724 721
721 725
725 726
726 727
132 728
728 729
729 730
730 731
731 732
732 733
733 131
734 735
735 736
736 737
737 738
738 739
739 740
740 741
742 743
743 737
738 744
744 745
745 746
747 748
748 749
749 750
750 751
751 749
749 747
752 753
753 754
754 755
755 756
