ply
format ascii 1.0
element vertex 180
property float x
property float y
property float z
property uchar red
property uchar green
property uchar blue
property uchar alpha
element edge 90
property int vertex1
property int vertex2
end_header
0.000000 -0.403548 -1.958864 102 178 255 255
0.000000 0.403548 -1.958864 25 76 153 153
0.000000 -0.403548 -1.958864 102 178 255 255
-0.652955 -0.807096 -1.709458 25 76 153 153
0.000000 -0.403548 -1.958864 102 178 255 255
0.652955 -0.807096 -1.709458 25 76 153 153
-1.958864 0.000000 -0.403548 102 178 255 255
-1.958864 0.000000 0.403548 25 76 153 153
-1.958864 0.000000 -0.403548 102 178 255 255
-1.709458 -0.652955 -0.807096 25 76 153 153
-1.958864 0.000000 -0.403548 102 178 255 255
-1.709458 0.652955 -0.807096 25 76 153 153
-0.403548 -1.958864 0.000000 102 178 255 255
0.403548 -1.958864 0.000000 25 76 153 153
-0.403548 -1.958864 0.000000 102 178 255 255
-0.807096 -1.709458 -0.652955 25 76 153 153
-0.403548 -1.958864 0.000000 102 178 255 255
-0.807096 -1.709458 0.652955 25 76 153 153
0.000000 -0.403548 1.958864 102 178 255 255
0.000000 0.403548 1.958864 25 76 153 153
0.000000 -0.403548 1.958864 102 178 255 255
-0.652955 -0.807096 1.709458 25 76 153 153
0.000000 -0.403548 1.958864 102 178 255 255
0.652955 -0.807096 1.709458 25 76 153 153
1.958864 0.000000 -0.403548 102 178 255 255
1.958864 0.000000 0.403548 25 76 153 153
1.958864 0.000000 -0.403548 102 178 255 255
1.709458 -0.652955 -0.807096 25 76 153 153
1.958864 0.000000 -0.403548 102 178 255 255
1.709458 0.652955 -0.807096 25 76 153 153
-0.403548 1.958864 0.000000 102 178 255 255
0.403548 1.958864 0.000000 25 76 153 153
-0.403548 1.958864 0.000000 102 178 255 255
-0.807096 1.709458 -0.652955 25 76 153 153
-0.403548 1.958864 0.000000 102 178 255 255
-0.807096 1.709458 0.652955 25 76 153 153
0.000000 0.403548 -1.958864 102 178 255 255
-0.652955 0.807096 -1.709458 25 76 153 153
0.000000 0.403548 -1.958864 102 178 255 255
0.652955 0.807096 -1.709458 25 76 153 153
-1.958864 0.000000 0.403548 102 178 255 255
-1.709458 -0.652955 0.807096 25 76 153 153
-1.958864 0.000000 0.403548 102 178 255 255
-1.709458 0.652955 0.807096 25 76 153 153
0.403548 -1.958864 0.000000 102 178 255 255
0.807096 -1.709458 -0.652955 25 76 153 153
0.403548 -1.958864 0.000000 102 178 255 255
0.807096 -1.709458 0.652955 25 76 153 153
0.000000 0.403548 1.958864 102 178 255 255
-0.652955 0.807096 1.709458 25 76 153 153
0.000000 0.403548 1.958864 102 178 255 255
0.652955 0.807096 1.709458 25 76 153 153
1.958864 0.000000 0.403548 102 178 255 255
1.709458 -0.652955 0.807096 25 76 153 153
1.958864 0.000000 0.403548 102 178 255 255
1.709458 0.652955 0.807096 25 76 153 153
0.403548 1.958864 0.000000 102 178 255 255
0.807096 1.709458 -0.652955 25 76 153 153
0.403548 1.958864 0.000000 102 178 255 255
0.807096 1.709458 0.652955 25 76 153 153
-0.403548 -1.460051 -1.305910 102 178 255 255
-0.652955 -0.807096 -1.709458 25 76 153 153
-0.403548 -1.460051 -1.305910 102 178 255 255
-0.807096 -1.709458 -0.652955 25 76 153 153
-0.403548 -1.460051 -1.305910 102 178 255 255
0.403548 -1.460051 -1.305910 25 76 153 153
-1.305910 -0.403548 -1.460051 102 178 255 255
-1.709458 -0.652955 -0.807096 25 76 153 153
-1.305910 -0.403548 -1.460051 102 178 255 255
-0.652955 -0.807096 -1.709458 25 76 153 153
-1.305910 -0.403548 -1.460051 102 178 255 255
-1.305910 0.403548 -1.460051 25 76 153 153
-1.460051 -1.305910 -0.403548 102 178 255 255
-0.807096 -1.709458 -0.652955 25 76 153 153
-1.460051 -1.305910 -0.403548 102 178 255 255
-1.709458 -0.652955 -0.807096 25 76 153 153
-1.460051 -1.305910 -0.403548 102 178 255 255
-1.460051 -1.305910 0.403548 25 76 153 153
-0.403548 -1.460051 1.305910 102 178 255 255
-0.652955 -0.807096 1.709458 25 76 153 153
-0.403548 -1.460051 1.305910 102 178 255 255
-0.807096 -1.709458 0.652955 25 76 153 153
-0.403548 -1.460051 1.305910 102 178 255 255
0.403548 -1.460051 1.305910 25 76 153 153
1.305910 -0.403548 -1.460051 102 178 255 255
1.709458 -0.652955 -0.807096 25 76 153 153
1.305910 -0.403548 -1.460051 102 178 255 255
0.652955 -0.807096 -1.709458 25 76 153 153
1.305910 -0.403548 -1.460051 102 178 255 255
1.305910 0.403548 -1.460051 25 76 153 153
-1.460051 1.305910 -0.403548 102 178 255 255
-0.807096 1.709458 -0.652955 25 76 153 153
-1.460051 1.305910 -0.403548 102 178 255 255
-1.709458 0.652955 -0.807096 25 76 153 153
-1.460051 1.305910 -0.403548 102 178 255 255
-1.460051 1.305910 0.403548 25 76 153 153
-0.403548 1.460051 -1.305910 102 178 255 255
-0.652955 0.807096 -1.709458 25 76 153 153
-0.403548 1.460051 -1.305910 102 178 255 255
-0.807096 1.709458 -0.652955 25 76 153 153
-0.403548 1.460051 -1.305910 102 178 255 255
0.403548 1.460051 -1.305910 25 76 153 153
-1.305910 -0.403548 1.460051 102 178 255 255
-1.709458 -0.652955 0.807096 25 76 153 153
-1.305910 -0.403548 1.460051 102 178 255 255
-0.652955 -0.807096 1.709458 25 76 153 153
-1.305910 -0.403548 1.460051 102 178 255 255
-1.305910 0.403548 1.460051 25 76 153 153
1.460051 -1.305910 -0.403548 102 178 255 255
0.807096 -1.709458 -0.652955 25 76 153 153
1.460051 -1.305910 -0.403548 102 178 255 255
1.709458 -0.652955 -0.807096 25 76 153 153
1.460051 -1.305910 -0.403548 102 178 255 255
1.460051 -1.305910 0.403548 25 76 153 153
-0.403548 1.460051 1.305910 102 178 255 255
-0.652955 0.807096 1.709458 25 76 153 153
-0.403548 1.460051 1.305910 102 178 255 255
-0.807096 1.709458 0.652955 25 76 153 153
-0.403548 1.460051 1.305910 102 178 255 255
0.403548 1.460051 1.305910 25 76 153 153
1.305910 -0.403548 1.460051 102 178 255 255
1.709458 -0.652955 0.807096 25 76 153 153
1.305910 -0.403548 1.460051 102 178 255 255
0.652955 -0.807096 1.709458 25 76 153 153
1.305910 -0.403548 1.460051 102 178 255 255
1.305910 0.403548 1.460051 25 76 153 153
1.460051 1.305910 -0.403548 102 178 255 255
0.807096 1.709458 -0.652955 25 76 153 153
1.460051 1.305910 -0.403548 102 178 255 255
1.709458 0.652955 -0.807096 25 76 153 153
1.460051 1.305910 -0.403548 102 178 255 255
1.460051 1.305910 0.403548 25 76 153 153
0.403548 -1.460051 -1.305910 102 178 255 255
0.652955 -0.807096 -1.709458 25 76 153 153
0.403548 -1.460051 -1.305910 102 178 255 255
0.807096 -1.709458 -0.652955 25 76 153 153
-1.305910 0.403548 -1.460051 102 178 255 255
-1.709458 0.652955 -0.807096 25 76 153 153
-1.305910 0.403548 -1.460051 102 178 255 255
-0.652955 0.807096 -1.709458 25 76 153 153
-1.460051 -1.305910 0.403548 102 178 255 255
-0.807096 -1.709458 0.652955 25 76 153 153
-1.460051 -1.305910 0.403548 102 178 255 255
-1.709458 -0.652955 0.807096 25 76 153 153
0.403548 -1.460051 1.305910 102 178 255 255
0.652955 -0.807096 1.709458 25 76 153 153
0.403548 -1.460051 1.305910 102 178 255 255
0.807096 -1.709458 0.652955 25 76 153 153
1.305910 0.403548 -1.460051 102 178 255 255
1.709458 0.652955 -0.807096 25 76 153 153
1.305910 0.403548 -1.460051 102 178 255 255
0.652955 0.807096 -1.709458 25 76 153 153
-1.460051 1.305910 0.403548 102 178 255 255
-0.807096 1.709458 0.652955 25 76 153 153
-1.460051 1.305910 0.403548 102 178 255 255
-1.709458 0.652955 0.807096 25 76 153 153
0.403548 1.460051 -1.305910 102 178 255 255
0.652955 0.807096 -1.709458 25 76 153 153
0.403548 1.460051 -1.305910 102 178 255 255
0.807096 1.709458 -0.652955 25 76 153 153
-1.305910 0.403548 1.460051 102 178 255 255
-1.709458 0.652955 0.807096 25 76 153 153
-1.305910 0.403548 1.460051 102 178 255 255
-0.652955 0.807096 1.709458 25 76 153 153
1.460051 -1.305910 0.403548 102 178 255 255
0.807096 -1.709458 0.652955 25 76 153 153
1.460051 -1.305910 0.403548 102 178 255 255
1.709458 -0.652955 0.807096 25 76 153 153
0.403548 1.460051 1.305910 102 178 255 255
0.652955 0.807096 1.709458 25 76 153 153
0.403548 1.460051 1.305910 102 178 255 255
0.807096 1.709458 0.652955 25 76 153 153
1.305910 0.403548 1.460051 102 178 255 255
1.709458 0.652955 0.807096 25 76 153 153
1.305910 0.403548 1.460051 102 178 255 255
0.652955 0.807096 1.709458 25 76 153 153
1.460051 1.305910 0.403548 102 178 255 255
0.807096 1.709458 0.652955 25 76 153 153
1.460051 1.305910 0.403548 102 178 255 255
1.709458 0.652955 0.807096 25 76 153 153
0 1
2 3
4 5
6 7
8 9
10 11
12 13
14 15
16 17
18 19
20 21
22 23
24 25
26 27
28 29
30 31
32 33
34 35
36 37
38 39
40 41
42 43
44 45
46 47
48 49
50 51
52 53
54 55
56 57
58 59
60 61
62 63
64 65
66 67
68 69
70 71
72 73
74 75
76 77
78 79
80 81
82 83
84 85
86 87
88 89
90 91
92 93
94 95
96 97
98 99
100 101
102 103
104 105
106 107
108 109
110 111
112 113
114 115
116 117
118 119
120 121
122 123
124 125
126 127
128 129
130 131
132 133
134 135
136 137
138 139
140 141
142 143
144 145
146 147
148 149
150 151
152 153
154 155
156 157
158 159
160 161
162 163
164 165
166 167
168 169
170 171
172 173
174 175
176 177
178 179
