ply
format ascii 1.0
element vertex 96
property float x
property float y
property float z
property uchar red
property uchar green
property uchar blue
property uchar alpha
element edge 48
property int vertex1
property int vertex2
end_header
1.500000 0.000000 0.000000 25 25 229 255
0.400000 -0.450000 0.000000 0 102 255 127
1.500000 0.000000 0.000000 25 25 229 255
0.400000 0.450000 0.000000 0 102 255 127
1.500000 0.000000 0.000000 25 25 229 255
0.400000 0.000000 -0.150000 0 102 255 127
1.500000 0.000000 0.000000 25 25 229 255
1.200000 0.000000 0.250000 0 102 255 127
1.200000 0.000000 0.250000 25 25 229 255
0.400000 0.000000 0.250000 0 102 255 127
0.400000 -0.450000 0.000000 25 25 229 255
0.400000 0.000000 0.250000 0 102 255 127
0.400000 0.000000 0.250000 25 25 229 255
0.400000 0.450000 0.000000 0 102 255 127
0.400000 0.450000 0.000000 25 25 229 255
0.400000 0.000000 -0.150000 0 102 255 127
0.400000 0.000000 -0.150000 25 25 229 255
0.400000 -0.450000 0.000000 0 102 255 127
0.400000 -0.450000 0.000000 25 25 229 255
-1.200000 -0.750000 0.000000 0 102 255 127
0.400000 0.450000 0.000000 25 25 229 255
-1.200000 0.750000 0.000000 0 102 255 127
0.400000 0.000000 0.250000 25 25 229 255
-1.200000 0.000000 0.200000 0 102 255 127
0.400000 0.000000 -0.150000 25 25 229 255
-1.200000 0.000000 -0.120000 0 102 255 127
-1.200000 -0.750000 0.000000 25 25 229 255
-1.200000 0.000000 0.200000 0 102 255 127
-1.200000 0.000000 0.200000 25 25 229 255
-1.200000 0.750000 0.000000 0 102 255 127
-1.200000 0.750000 0.000000 25 25 229 255
-1.200000 0.000000 -0.120000 0 102 255 127
-1.200000 0.000000 -0.120000 25 25 229 255
-1.200000 -0.750000 0.000000 0 102 255 127
1.500000 0.000000 -0.080000 25 25 229 255
1.900000 0.000000 -0.080000 0 102 255 127
0.400000 0.000000 -0.150000 25 25 229 255
1.500000 0.000000 -0.080000 0 102 255 127
1.500000 0.000000 0.000000 25 25 229 255
1.500000 0.000000 -0.080000 0 102 255 127
0.400000 -0.450000 0.000000 25 25 229 255
1.100000 -2.100000 -0.050000 0 102 255 127
1.100000 -2.100000 -0.050000 25 25 229 255
-0.200000 -1.500000 0.000000 0 102 255 127
-0.200000 -1.500000 0.000000 25 25 229 255
-1.000000 -0.750000 0.000000 0 102 255 127
0.400000 -0.450000 0.000000 25 25 229 255
-1.000000 -0.750000 0.000000 0 102 255 127
0.400000 -0.450000 0.000000 25 25 229 255
-0.200000 -1.500000 0.000000 0 102 255 127
1.100000 -2.100000 -0.050000 25 25 229 255
-1.000000 -0.750000 0.000000 0 102 255 127
0.400000 0.450000 0.000000 25 25 229 255
1.100000 2.100000 -0.050000 0 102 255 127
1.100000 2.100000 -0.050000 25 25 229 255
-0.200000 1.500000 0.000000 0 102 255 127
-0.200000 1.500000 0.000000 25 25 229 255
-1.000000 0.750000 0.000000 0 102 255 127
0.400000 0.450000 0.000000 25 25 229 255
-1.000000 0.750000 0.000000 0 102 255 127
0.400000 0.450000 0.000000 25 25 229 255
-0.200000 1.500000 0.000000 0 102 255 127
1.100000 2.100000 -0.050000 25 25 229 255
-1.000000 0.750000 0.000000 0 102 255 127
-1.200000 -0.530000 0.080000 25 25 229 255
-1.800000 -0.530000 0.080000 0 102 255 127
-1.200000 -0.170000 0.080000 25 25 229 255
-1.800000 -0.170000 0.080000 0 102 255 127
-1.200000 -0.170000 -0.080000 25 25 229 255
-1.800000 -0.170000 -0.080000 0 102 255 127
-1.200000 -0.530000 -0.080000 25 25 229 255
-1.800000 -0.530000 -0.080000 0 102 255 127
-1.800000 -0.530000 0.080000 25 25 229 255
-1.800000 -0.170000 0.080000 0 102 255 127
-1.800000 -0.170000 0.080000 25 25 229 255
-1.800000 -0.170000 -0.080000 0 102 255 127
-1.800000 -0.170000 -0.080000 25 25 229 255
-1.800000 -0.530000 -0.080000 0 102 255 127
-1.800000 -0.530000 -0.080000 25 25 229 255
-1.800000 -0.530000 0.080000 0 102 255 127
-1.200000 0.170000 0.080000 25 25 229 255
-1.800000 0.170000 0.080000 0 102 255 127
-1.200000 0.530000 0.080000 25 25 229 255
-1.800000 0.530000 0.080000 0 102 255 127
-1.200000 0.530000 -0.080000 25 25 229 255
-1.800000 0.530000 -0.080000 0 102 255 127
-1.200000 0.170000 -0.080000 25 25 229 255
-1.800000 0.170000 -0.080000 0 102 255 127
-1.800000 0.170000 0.080000 25 25 229 255
-1.800000 0.530000 0.080000 0 102 255 127
-1.800000 0.530000 0.080000 25 25 229 255
-1.800000 0.530000 -0.080000 0 102 255 127
-1.800000 0.530000 -0.080000 25 25 229 255
-1.800000 0.170000 -0.080000 0 102 255 127
-1.800000 0.170000 -0.080000 25 25 229 255
-1.800000 0.170000 0.080000 0 102 255 127
0 1
2 3
4 5
6 7
8 9
10 11
12 13
14 15
16 17
18 19
20 21
22 23
24 25
26 27
28 29
30 31
32 33
34 35
36 37
38 39
40 41
42 43
44 45
46 47
48 49
50 51
52 53
54 55
56 57
58 59
60 61
62 63
64 65
66 67
68 69
70 71
72 73
74 75
76 77
78 79
80 81
82 83
84 85
86 87
88 89
90 91
92 93
94 95
