ply
format ascii 1.0
element vertex 266
property float x
property float y
property float z
property uchar red
property uchar green
property uchar blue
property uchar alpha
element edge 133
property int vertex1
property int vertex2
end_header
5.500000 0.000000 0.000000 102 102 102 255
3.600000 -0.150000 -0.120000 0 76 255 102
5.500000 0.000000 0.000000 102 102 102 255
3.600000 0.150000 -0.120000 0 76 255 102
5.500000 0.000000 0.000000 102 102 102 255
3.600000 0.150000 0.120000 0 76 255 102
5.500000 0.000000 0.000000 102 102 102 255
3.600000 -0.150000 0.120000 0 76 255 102
3.600000 -0.150000 -0.120000 102 102 102 255
3.600000 0.150000 -0.120000 0 76 255 102
3.600000 0.150000 -0.120000 102 102 102 255
3.600000 0.150000 0.120000 0 76 255 102
3.600000 0.150000 0.120000 102 102 102 255
3.600000 -0.150000 0.120000 0 76 255 102
3.600000 -0.150000 0.120000 102 102 102 255
3.600000 -0.150000 -0.120000 0 76 255 102
3.600000 -0.150000 -0.120000 102 102 102 255
1.400000 -0.420000 -0.220000 0 76 255 102
3.600000 0.150000 -0.120000 102 102 102 255
1.400000 0.420000 -0.220000 0 76 255 102
3.600000 0.150000 0.120000 102 102 102 255
1.400000 0.420000 0.220000 0 76 255 102
3.600000 -0.150000 0.120000 102 102 102 255
1.400000 -0.420000 0.220000 0 76 255 102
1.400000 -0.420000 -0.220000 102 102 102 255
1.400000 0.420000 -0.220000 0 76 255 102
1.400000 0.420000 -0.220000 102 102 102 255
1.400000 0.420000 0.220000 0 76 255 102
1.400000 0.420000 0.220000 102 102 102 255
1.400000 -0.420000 0.220000 0 76 255 102
1.400000 -0.420000 0.220000 102 102 102 255
1.400000 -0.420000 -0.220000 0 76 255 102
1.400000 -0.420000 -0.220000 102 102 102 255
-1.300000 -0.350000 -0.200000 0 76 255 102
1.400000 0.420000 -0.220000 102 102 102 255
-1.300000 0.350000 -0.200000 0 76 255 102
1.400000 0.420000 0.220000 102 102 102 255
-1.300000 0.350000 0.200000 0 76 255 102
1.400000 -0.420000 0.220000 102 102 102 255
-1.300000 -0.350000 0.200000 0 76 255 102
-1.300000 -0.350000 -0.200000 102 102 102 255
-1.300000 0.350000 -0.200000 0 76 255 102
-1.300000 0.350000 -0.200000 102 102 102 255
-1.300000 0.350000 0.200000 0 76 255 102
-1.300000 0.350000 0.200000 102 102 102 255
-1.300000 -0.350000 0.200000 0 76 255 102
-1.300000 -0.350000 0.200000 102 102 102 255
-1.300000 -0.350000 -0.200000 0 76 255 102
1.400000 -0.420000 -0.220000 102 102 102 255
1.400000 0.420000 0.220000 0 76 255 102
1.400000 0.420000 -0.220000 102 102 102 255
1.400000 -0.420000 0.220000 0 76 255 102
-1.300000 -0.350000 -0.200000 102 102 102 255
-1.300000 0.350000 0.200000 0 76 255 102
-1.300000 0.350000 -0.200000 102 102 102 255
-1.300000 -0.350000 0.200000 0 76 255 102
5.500000 0.000000 0.000000 102 102 102 255
2.600000 0.000000 0.450000 0 76 255 102
2.600000 0.000000 0.450000 102 102 102 255
1.800000 0.000000 0.580000 0 76 255 102
1.800000 0.000000 0.580000 102 102 102 255
1.000000 0.000000 0.420000 0 76 255 102
1.000000 0.000000 0.420000 102 102 102 255
1.400000 0.420000 0.220000 0 76 255 102
1.000000 0.000000 0.420000 102 102 102 255
1.400000 -0.420000 0.220000 0 76 255 102
0.800000 -0.880000 0.120000 102 102 102 255
0.900000 -4.480000 0.120000 0 76 255 102
0.900000 -4.480000 0.120000 102 102 102 255
-0.200000 -3.200000 0.120000 0 76 255 102
-0.200000 -3.200000 0.120000 102 102 102 255
-1.200000 -3.520000 0.120000 0 76 255 102
-1.200000 -3.520000 0.120000 102 102 102 255
-0.800000 -0.880000 0.120000 0 76 255 102
0.800000 -0.880000 0.120000 102 102 102 255
-0.800000 -0.880000 0.120000 0 76 255 102
0.800000 -0.880000 0.120000 102 102 102 255
-0.200000 -3.200000 0.120000 0 76 255 102
-0.800000 -0.880000 0.120000 102 102 102 255
-0.200000 -3.200000 0.120000 0 76 255 102
0.800000 -0.880000 0.120000 102 102 102 255
-1.200000 -3.520000 0.120000 0 76 255 102
-0.800000 -0.880000 0.120000 102 102 102 255
0.900000 -4.480000 0.120000 0 76 255 102
1.400000 -0.420000 -0.220000 102 102 102 255
0.800000 -0.880000 0.120000 0 76 255 102
-1.300000 -0.350000 -0.200000 102 102 102 255
-0.800000 -0.880000 0.120000 0 76 255 102
1.400000 0.420000 -0.220000 102 102 102 255
0.800000 -0.880000 0.120000 0 76 255 102
-1.300000 0.350000 -0.200000 102 102 102 255
-0.800000 -0.880000 0.120000 0 76 255 102
0.900000 -4.480000 0.120000 102 102 102 255
1.000000 -4.480000 0.120000 0 76 255 102
1.000000 -4.480000 0.120000 102 102 102 255
2.000000 -4.480000 0.120000 0 76 255 102
-0.700000 -2.000000 0.120000 102 102 102 255
-0.700000 -2.046863 0.233137 0 76 255 102
-0.700000 -2.046863 0.233137 102 102 102 255
-0.700000 -2.160000 0.280000 0 76 255 102
-0.700000 -2.160000 0.280000 102 102 102 255
-0.700000 -2.273137 0.233137 0 76 255 102
-0.700000 -2.273137 0.233137 102 102 102 255
-0.700000 -2.320000 0.120000 0 76 255 102
-0.700000 -2.320000 0.120000 102 102 102 255
-0.700000 -2.273137 0.006863 0 76 255 102
-0.700000 -2.273137 0.006863 102 102 102 255
-0.700000 -2.160000 -0.040000 0 76 255 102
-0.700000 -2.160000 -0.040000 102 102 102 255
-0.700000 -2.046863 0.006863 0 76 255 102
-0.700000 -2.046863 0.006863 102 102 102 255
-0.700000 -2.000000 0.120000 0 76 255 102
-0.800000 -0.880000 0.120000 102 102 102 255
-0.700000 -2.000000 0.120000 0 76 255 102
-0.200000 -3.200000 0.120000 102 102 102 255
-0.700000 -2.000000 0.120000 0 76 255 102
0.800000 0.880000 0.120000 102 102 102 255
0.900000 4.480000 0.120000 0 76 255 102
0.900000 4.480000 0.120000 102 102 102 255
-0.200000 3.200000 0.120000 0 76 255 102
-0.200000 3.200000 0.120000 102 102 102 255
-1.200000 3.520000 0.120000 0 76 255 102
-1.200000 3.520000 0.120000 102 102 102 255
-0.800000 0.880000 0.120000 0 76 255 102
0.800000 0.880000 0.120000 102 102 102 255
-0.800000 0.880000 0.120000 0 76 255 102
0.800000 0.880000 0.120000 102 102 102 255
-0.200000 3.200000 0.120000 0 76 255 102
-0.800000 0.880000 0.120000 102 102 102 255
-0.200000 3.200000 0.120000 0 76 255 102
0.800000 0.880000 0.120000 102 102 102 255
-1.200000 3.520000 0.120000 0 76 255 102
-0.800000 0.880000 0.120000 102 102 102 255
0.900000 4.480000 0.120000 0 76 255 102
1.400000 -0.420000 -0.220000 102 102 102 255
0.800000 0.880000 0.120000 0 76 255 102
-1.300000 -0.350000 -0.200000 102 102 102 255
-0.800000 0.880000 0.120000 0 76 255 102
1.400000 0.420000 -0.220000 102 102 102 255
0.800000 0.880000 0.120000 0 76 255 102
-1.300000 0.350000 -0.200000 102 102 102 255
-0.800000 0.880000 0.120000 0 76 255 102
0.900000 4.480000 0.120000 102 102 102 255
1.000000 4.480000 0.120000 0 76 255 102
1.000000 4.480000 0.120000 102 102 102 255
2.000000 4.480000 0.120000 0 76 255 102
-0.700000 2.320000 0.120000 102 102 102 255
-0.700000 2.273137 0.233137 0 76 255 102
-0.700000 2.273137 0.233137 102 102 102 255
-0.700000 2.160000 0.280000 0 76 255 102
-0.700000 2.160000 0.280000 102 102 102 255
-0.700000 2.046863 0.233137 0 76 255 102
-0.700000 2.046863 0.233137 102 102 102 255
-0.700000 2.000000 0.120000 0 76 255 102
-0.700000 2.000000 0.120000 102 102 102 255
-0.700000 2.046863 0.006863 0 76 255 102
-0.700000 2.046863 0.006863 102 102 102 255
-0.700000 2.160000 -0.040000 0 76 255 102
-0.700000 2.160000 -0.040000 102 102 102 255
-0.700000 2.273137 0.006863 0 76 255 102
-0.700000 2.273137 0.006863 102 102 102 255
-0.700000 2.320000 0.120000 0 76 255 102
-0.800000 0.880000 0.120000 102 102 102 255
-0.700000 2.320000 0.120000 0 76 255 102
-0.200000 3.200000 0.120000 102 102 102 255
-0.700000 2.320000 0.120000 0 76 255 102
0.800000 -0.550000 -0.620000 102 102 102 255
0.900000 -2.800000 -0.620000 0 76 255 102
0.900000 -2.800000 -0.620000 102 102 102 255
-0.200000 -2.000000 -0.620000 0 76 255 102
-0.200000 -2.000000 -0.620000 102 102 102 255
-1.200000 -2.200000 -0.620000 0 76 255 102
-1.200000 -2.200000 -0.620000 102 102 102 255
-0.800000 -0.550000 -0.620000 0 76 255 102
0.800000 -0.550000 -0.620000 102 102 102 255
-0.800000 -0.550000 -0.620000 0 76 255 102
0.800000 -0.550000 -0.620000 102 102 102 255
-0.200000 -2.000000 -0.620000 0 76 255 102
-0.800000 -0.550000 -0.620000 102 102 102 255
-0.200000 -2.000000 -0.620000 0 76 255 102
0.800000 -0.550000 -0.620000 102 102 102 255
-1.200000 -2.200000 -0.620000 0 76 255 102
-0.800000 -0.550000 -0.620000 102 102 102 255
0.900000 -2.800000 -0.620000 0 76 255 102
1.400000 -0.420000 -0.220000 102 102 102 255
0.800000 -0.550000 -0.620000 0 76 255 102
-1.300000 -0.350000 -0.200000 102 102 102 255
-0.800000 -0.550000 -0.620000 0 76 255 102
1.400000 0.420000 -0.220000 102 102 102 255
0.800000 -0.550000 -0.620000 0 76 255 102
-1.300000 0.350000 -0.200000 102 102 102 255
-0.800000 -0.550000 -0.620000 0 76 255 102
0.900000 -2.800000 -0.620000 102 102 102 255
1.000000 -2.800000 -0.620000 0 76 255 102
1.000000 -2.800000 -0.620000 102 102 102 255
2.000000 -2.800000 -0.620000 0 76 255 102
-0.700000 -1.190000 -0.620000 102 102 102 255
-0.700000 -1.236863 -0.506863 0 76 255 102
-0.700000 -1.236863 -0.506863 102 102 102 255
-0.700000 -1.350000 -0.460000 0 76 255 102
-0.700000 -1.350000 -0.460000 102 102 102 255
-0.700000 -1.463137 -0.506863 0 76 255 102
-0.700000 -1.463137 -0.506863 102 102 102 255
-0.700000 -1.510000 -0.620000 0 76 255 102
-0.700000 -1.510000 -0.620000 102 102 102 255
-0.700000 -1.463137 -0.733137 0 76 255 102
-0.700000 -1.463137 -0.733137 102 102 102 255
-0.700000 -1.350000 -0.780000 0 76 255 102
-0.700000 -1.350000 -0.780000 102 102 102 255
-0.700000 -1.236863 -0.733137 0 76 255 102
-0.700000 -1.236863 -0.733137 102 102 102 255
-0.700000 -1.190000 -0.620000 0 76 255 102
-0.800000 -0.550000 -0.620000 102 102 102 255
-0.700000 -1.190000 -0.620000 0 76 255 102
-0.200000 -2.000000 -0.620000 102 102 102 255
-0.700000 -1.190000 -0.620000 0 76 255 102
0.800000 0.550000 -0.620000 102 102 102 255
0.900000 2.800000 -0.620000 0 76 255 102
0.900000 2.800000 -0.620000 102 102 102 255
-0.200000 2.000000 -0.620000 0 76 255 102
-0.200000 2.000000 -0.620000 102 102 102 255
-1.200000 2.200000 -0.620000 0 76 255 102
-1.200000 2.200000 -0.620000 102 102 102 255
-0.800000 0.550000 -0.620000 0 76 255 102
0.800000 0.550000 -0.620000 102 102 102 255
-0.800000 0.550000 -0.620000 0 76 255 102
0.800000 0.550000 -0.620000 102 102 102 255
-0.200000 2.000000 -0.620000 0 76 255 102
-0.800000 0.550000 -0.620000 102 102 102 255
-0.200000 2.000000 -0.620000 0 76 255 102
0.800000 0.550000 -0.620000 102 102 102 255
-1.200000 2.200000 -0.620000 0 76 255 102
-0.800000 0.550000 -0.620000 102 102 102 255
0.900000 2.800000 -0.620000 0 76 255 102
1.400000 -0.420000 -0.220000 102 102 102 255
0.800000 0.550000 -0.620000 0 76 255 102
-1.300000 -0.350000 -0.200000 102 102 102 255
-0.800000 0.550000 -0.620000 0 76 255 102
1.400000 0.420000 -0.220000 102 102 102 255
0.800000 0.550000 -0.620000 0 76 255 102
-1.300000 0.350000 -0.200000 102 102 102 255
-0.800000 0.550000 -0.620000 0 76 255 102
0.900000 2.800000 -0.620000 102 102 102 255
1.000000 2.800000 -0.620000 0 76 255 102
1.000000 2.800000 -0.620000 102 102 102 255
2.000000 2.800000 -0.620000 0 76 255 102
-0.700000 1.510000 -0.620000 102 102 102 255
-0.700000 1.463137 -0.506863 0 76 255 102
-0.700000 1.463137 -0.506863 102 102 102 255
-0.700000 1.350000 -0.460000 0 76 255 102
-0.700000 1.350000 -0.460000 102 102 102 255
-0.700000 1.236863 -0.506863 0 76 255 102
-0.700000 1.236863 -0.506863 102 102 102 255
-0.700000 1.190000 -0.620000 0 76 255 102
-0.700000 1.190000 -0.620000 102 102 102 255
-0.700000 1.236863 -0.733137 0 76 255 102
-0.700000 1.236863 -0.733137 102 102 102 255
-0.700000 1.350000 -0.780000 0 76 255 102
-0.700000 1.350000 -0.780000 102 102 102 255
-0.700000 1.463137 -0.733137 0 76 255 102
-0.700000 1.463137 -0.733137 102 102 102 255
-0.700000 1.510000 -0.620000 0 76 255 102
-0.800000 0.550000 -0.620000 102 102 102 255
-0.700000 1.510000 -0.620000 0 76 255 102
-0.200000 2.000000 -0.620000 102 102 102 255
-0.700000 1.510000 -0.620000 0 76 255 102
0 1
2 3
4 5
6 7
8 9
10 11
12 13
14 15
16 17
18 19
20 21
22 23
24 25
26 27
28 29
30 31
32 33
34 35
36 37
38 39
40 41
42 43
44 45
46 47
48 49
50 51
52 53
54 55
56 57
58 59
60 61
62 63
64 65
66 67
68 69
70 71
72 73
74 75
76 77
78 79
80 81
82 83
84 85
86 87
88 89
90 91
92 93
94 95
96 97
98 99
100 101
102 103
104 105
106 107
108 109
110 111
112 113
114 115
116 117
118 119
120 121
122 123
124 125
126 127
128 129
130 131
132 133
134 135
136 137
138 139
140 141
142 143
144 145
146 147
148 149
150 151
152 153
154 155
156 157
158 159
160 161
162 163
164 165
166 167
168 169
170 171
172 173
174 175
176 177
178 179
180 181
182 183
184 185
186 187
188 189
190 191
192 193
194 195
196 197
198 199
200 201
202 203
204 205
206 207
208 209
210 211
212 213
214 215
216 217
218 219
220 221
222 223
224 225
226 227
228 229
230 231
232 233
234 235
236 237
238 239
240 241
242 243
244 245
246 247
248 249
250 251
252 253
254 255
256 257
258 259
260 261
262 263
264 265
